<?xml version="1.0" standalone="no"?>
<!DOCTYPE svg PUBLIC "-//W3C//DTD SVG 1.1//EN" "http://www.w3.org/Graphics/SVG/1.1/DTD/svg11.dtd" >
<svg xmlns="http://www.w3.org/2000/svg">
<metadata>
Created by FontPrep 20130207 at Fri Sep 15 14:07:15 2017
 By Chameleon
All rights reserved  Noem9 Studio 2013
</metadata>
<defs>
<font id="3824c02f176f364047c1cf0261d61c30" horiz-adv-x='1024' >
  <font-face 
    font-family="Essay-Poster"
    font-weight="400"
    font-stretch="normal"
    units-per-em="2048"
    panose-1="0 0 5 0 0 0 0 0 0 0"
    ascent="1638"
    descent="-410"
    x-height="1434"
    cap-height="1434"
    bbox="-281 -715 2404 2259"
    underline-thickness="102"
    underline-position="-102"
    unicode-range="U+0020-2C73"
  />
<missing-glyph horiz-adv-x="1024" 
d="M102 1239v-1044l349 522zM164 102h696l-348 523zM573 717l349 -522v1044zM512 809l348 522h-696zM0 0v1434h1024v-1434h-1024z" />
    <glyph glyph-name=".notdef" horiz-adv-x="1024" 
d="M102 1239v-1044l349 522zM164 102h696l-348 523zM573 717l349 -522v1044zM512 809l348 522h-696zM0 0v1434h1024v-1434h-1024z" />
    <glyph glyph-name=".null" horiz-adv-x="0" 
 />
    <glyph glyph-name="nonmarkingreturn" horiz-adv-x="681" 
 />
    <glyph glyph-name="space" unicode=" " horiz-adv-x="460" 
 />
    <glyph glyph-name="exclam" unicode="!" horiz-adv-x="583" 
d="M135 0v158q0 47 -34 80t-81 32h543v-270h-428zM563 385h-428v934q0 47 -34 81t-81 34h543v-1049z" />
    <glyph glyph-name="quotedbl" unicode="&#x22;" horiz-adv-x="905" 
d="M475 1024l111 543h299l-111 -543h-299zM82 1567h414l-111 -543h-299l86 428q10 47 -16 81q-27 34 -74 34z" />
    <glyph glyph-name="numbersign" unicode="#" horiz-adv-x="1552" 
d="M903 829h-311l131 -24l-37 -174h178zM20 631h259l40 198h-143l57 281q6 37 -23 64q-30 27 -73 26h258l74 363h408l-74 -363h176l76 363h407l-73 -363h143l-76 -371h-143l-41 -198h143l-76 -373h-143l-80 -389h-407l79 389h-313l131 -25l-76 -364h-407l80 389h-144l58 281
q6 37 -24 65t-73 27z" />
    <glyph glyph-name="dollar" unicode="$" horiz-adv-x="1175" 
d="M547 1016q0 -72 159 -112t291 -127q68 -44 113 -129t45 -199q0 -154 -104 -293t-267 -191v-147h-299v133q-254 30 -405 164q-35 31 -47 51l-13 20l185 355q71 -103 195 -157t218 -41t95 77q1 49 -61 81q-62 33 -149 61t-174 73t-149 148q-61 103 -61 256t88 268t258 159
v33q0 47 -34 81t-81 34h414v-129q94 -15 176 -57t117 -76l37 -33l-185 -354q-20 73 -110 111t-171 21t-81 -81z" />
    <glyph glyph-name="percent" unicode="%" horiz-adv-x="1622" 
d="M1354 246q0 46 -33 78t-79 32t-79 -32t-33 -79q0 -46 33 -79t78 -33t79 34t34 79zM1241 -117q-150 1 -255 107t-105 256t105 255t255 105t255 -105q106 -105 106 -255t-106 -256t-255 -107zM382 1303q-46 0 -79 -33t-33 -79t33 -79t78 -33t79 34t34 79t-33 78t-79 33z
M381 829q-150 1 -255 107t-106 256q0 150 106 255t255 105q150 0 255 -105t105 -255t-105 -256t-255 -107zM459 -129h-439l1143 1694h439z" />
    <glyph glyph-name="ampersand" unicode="&#x26;" horiz-adv-x="1687" 
d="M469 444q0 -60 66 -99q104 -60 280 -17l-360 329l77 -104q-63 -49 -63 -109zM664 1141q-45 0 -72 -23t-27 -55q0 -55 84 -131q13 4 31 11t50 41t32 73t-26 61t-72 23zM730 -47q-202 0 -350 42q-146 42 -243 143q-96 101 -96 251q0 250 266 404q-41 51 -61 81t-42 96
q-22 65 -22 136q0 147 122 263t362 116t360 -111t119 -256q0 -145 -85 -235q-46 -49 -81 -76t-109 -78l195 -178q29 51 -1 88t-81 37h461q0 -193 -109 -373l332 -303h-481l-76 68q-178 -115 -380 -115z" />
    <glyph glyph-name="quotesingle" unicode="'" horiz-adv-x="516" 
d="M82 1567h414l-111 -543h-299l86 428q10 47 -16 81q-27 34 -74 34z" />
    <glyph glyph-name="parenleft" unicode="(" horiz-adv-x="665" 
d="M20 717q0 225 27 432t59 336q33 129 83 259t100 204l356 -236l-10 -20q-64 -122 -96 -255q-33 -132 -61 -289t-29 -385q0 -685 194 -1039l2 -3l-356 -235q-49 73 -99 204q-51 130 -84 259t-59 336q-27 207 -27 432z" />
    <glyph glyph-name="parenright" unicode=")" horiz-adv-x="665" 
d="M217 696q0 378 -78 693q-31 129 -63 205q-33 75 -43 98l-13 20l357 236q102 -153 182 -463q33 -129 59 -336t27 -432q0 -225 -27 -432q-45 -342 -136 -579q-57 -148 -105 -220l-357 235l3 3q194 389 194 972z" />
    <glyph glyph-name="asterisk" unicode="*" horiz-adv-x="768" 
d="M287 1524q0 47 -34 81t-81 33h309v-217l207 66l60 -184l-216 -68l130 -178l-156 -113l-121 166l-123 -166l-156 113l130 178l-216 68l62 184l205 -66v103z" />
    <glyph glyph-name="plus" unicode="+" horiz-adv-x="1146" 
d="M1126 891v-354h-374v-377h-357v377h-375v352h375v264q0 47 -34 81t-80 34h471v-377h374z" />
    <glyph glyph-name="comma" unicode="," horiz-adv-x="454" 
d="M434 399l-110 -542h-299l86 428q10 47 -17 81t-74 33h414z" />
    <glyph glyph-name="hyphen" unicode="-" horiz-adv-x="974" 
d="M954 911v-399h-819v285q0 47 -34 81t-81 33h934z" />
    <glyph glyph-name="period" unicode="." horiz-adv-x="555" 
d="M535 0h-400v285q0 47 -34 81t-81 33h515v-399z" />
    <glyph glyph-name="slash" unicode="/" horiz-adv-x="823" 
d="M252 1565h551l-346 -1694h-437l322 1579q8 47 -17 81q-26 34 -73 34z" />
    <glyph glyph-name="zero" unicode="0" horiz-adv-x="1261" 
d="M780 455v520q0 70 -20 84q-35 23 -129 22h-250l119 -24q-18 -16 -19 -82v-520q0 -70 21 -84q35 -23 129 -23t129 23q20 14 20 84zM82 455v520q0 127 43 222q43 96 98 151t161 94t246 39q142 0 248 -39t160 -94q55 -55 97 -148t45 -225v-520q0 -126 -44 -222t-98 -151
q-55 -55 -160 -94q-104 -39 -246 -39t-248 39t-161 94t-98 150t-43 223z" />
    <glyph glyph-name="one" unicode="1" horiz-adv-x="927" 
d="M846 1434v-1434h-428v1008l129 26h-350v285q0 47 -34 81t-81 34h764z" />
    <glyph glyph-name="two" unicode="2" horiz-adv-x="1189" 
d="M1108 401v-401h-1026v401q44 32 172 142q129 110 206 184t139 156t63 127q0 78 -116 84t-194 -60q-25 -24 -33 -60t9 -71l-213 410l18 18q12 12 53 42q149 109 353 112q268 0 409 -129t142 -322q0 -234 -306 -514q-57 -53 -112 -94l-129 -25h565z" />
    <glyph glyph-name="three" unicode="3" horiz-adv-x="1261" 
d="M631 -49q-244 0 -381 110q-168 135 -168 396l371 -2q1 -45 33 -77t77 -32h125q49 0 79 34t30 77t-32 75t-77 31h-356v287l151 184h-282v285q0 47 -34 81t-81 34h1008v-285l-285 -346l102 84q268 -131 269 -430q0 -126 -44 -222t-98 -151q-55 -55 -160 -94t-247 -39z" />
    <glyph glyph-name="four" unicode="4" horiz-adv-x="1155" 
d="M1073 831v-831h-428v403l-24 -129h-537l113 1045q4 47 -26 81t-77 34h543l-82 -760h90v157h428z" />
    <glyph glyph-name="five" unicode="5" horiz-adv-x="1259" 
d="M625 946h80q195 0 333 -139t140 -334q0 -195 -140 -334t-333 -139h-539v399h539q31 0 53 22q22 23 20 53q0 30 -21 50q-22 20 -52 21h-510v774q0 47 -33 81t-80 34h940v-400h-528l131 -26v-62z" />
    <glyph glyph-name="six" unicode="6" horiz-adv-x="1282" 
d="M602 346h76q41 0 71 30q29 30 29 70t-29 71q-30 30 -71 30h-305l129 -27v-74q0 -40 30 -70t70 -30zM502 942h139q215 0 350 -82q209 -131 209 -414q0 -124 -43 -217q-43 -94 -100 -148t-165 -92t-251 -38q-219 0 -350 82q-209 129 -209 413v543q0 129 41 219
q41 91 95 145t158 92t240 38q236 0 371 -109q164 -131 164 -356h-399q0 66 -125 66t-125 -66v-76z" />
    <glyph glyph-name="seven" unicode="7" horiz-adv-x="1273" 
d="M197 1034v285q0 47 -34 81t-81 34h1110l-428 -1434h-436l301 1008l129 26h-561z" />
    <glyph glyph-name="eight" unicode="8" horiz-adv-x="1261" 
d="M594 346h76q42 0 70 30t28 70t-29 71q-29 30 -69 30h-76q-41 0 -71 -30q-29 -30 -29 -71q0 -40 30 -70t70 -30zM668 1108h-74q-39 0 -67 -29q-27 -29 -27 -67t28 -67q28 -28 66 -27h74q38 0 66 28t28 66q0 40 -28 68t-66 28zM1190 446q0 -124 -43 -217q-43 -94 -100 -148
t-165 -92t-251 -38t-251 38t-165 92t-100 148t-43 217q0 182 94 308q-66 109 -66 243t42 222t95 139q54 51 155 88q100 37 238 37t239 -37t155 -88t96 -138q41 -87 41 -213q0 -127 -51 -229l-104 78q74 -78 90 -102q94 -125 94 -308z" />
    <glyph glyph-name="nine" unicode="9" horiz-adv-x="1349" 
d="M670 887h75q41 -1 71 29t30 71t-30 71t-71 29h-264l123 -24q-35 -31 -35 -74t30 -73t71 -29zM868 444v62q-86 -14 -159 -14q-248 0 -404 120t-155 375q0 125 43 218q43 94 100 148t165 92t251 38q247 0 403 -119t156 -377v-543q0 -129 -42 -219t-96 -144t-158 -92
q-103 -38 -241 -38q-201 0 -343 89t-179 261q-10 49 -45 82t-82 33h514q0 -42 24 -54t114 -12t112 16t22 78z" />
    <glyph glyph-name="colon" unicode=":" horiz-adv-x="555" 
d="M535 645v-399h-400v284q0 47 -34 81t-81 34h515zM535 768h-400v285q0 47 -34 81t-81 33h515v-399z" />
    <glyph glyph-name="semicolon" unicode=";" horiz-adv-x="483" 
d="M164 115h299l-144 -402h-299zM463 541v-299h-299v184q0 47 -34 81t-81 34h414z" />
    <glyph glyph-name="less" unicode="&#x3c;" horiz-adv-x="1273" 
d="M1253 1102l-596 -379l596 -379v-403l-1233 782l1233 782v-403z" />
    <glyph glyph-name="equal" unicode="=" horiz-adv-x="1548" 
d="M1528 639v-358h-1393v243q0 47 -34 81t-81 34h1508zM1528 1161v-358h-1393v244q0 47 -34 81t-81 33h1508z" />
    <glyph glyph-name="greater" unicode="&#x3e;" horiz-adv-x="1273" 
d="M1253 723l-1233 -782v403l596 379l-596 379v403z" />
    <glyph glyph-name="question" unicode="?" horiz-adv-x="1077" 
d="M205 -127v328q0 47 -34 81t-81 33h557v-442h-442zM995 1155q0 -117 -36 -217t-86 -167t-101 -123q-123 -135 -123 -214h-444q0 168 127 302q53 56 107 110q128 129 128 256q0 82 -90 104t-181 -24q-91 -47 -91 -131l-185 383q169 169 430 170q262 2 404 -126t141 -323z
" />
    <glyph glyph-name="A" unicode="A" 
d="M702 588l-69 407l-72 -407h141zM199 1434h751l293 -1434h-438l-33 188h-416l129 -24l-26 -164h-439l271 1319q10 47 -17.5 81t-74.5 34z" />
    <glyph glyph-name="B" unicode="B" horiz-adv-x="1267" 
d="M535 395h247q33 0 56 23q22 24 22 56t-22 54t-56 23h-247v-156zM535 911h149q32 0 54 23q22 24 22 56t-23 54t-53 23h-149v-156zM1247 474q0 -196 -138 -335t-333 -139h-641v1319q0 47 -34 81t-81 34h656q184 0 314 -130t130 -315q0 -76 -30 -162l-74 -112l92 94
q139 -139 139 -335z" />
    <glyph glyph-name="C" unicode="C" horiz-adv-x="1308" 
d="M780 997q-121 0 -202.5 -81.5t-81.5 -197.5t81.5 -198t198.5 -82q82 0 149.5 44t102.5 116l219 -446q-201 -172 -471 -172q-305 0 -521 216t-216 521t216 521t505.5 216t496.5 -180l-257 -494q32 64 -15 121q-84 96 -205 96zM1000 780q-1 -3 -3 -6z" />
    <glyph glyph-name="D" unicode="D" horiz-adv-x="1333" 
d="M563 428h33q121 0 205 85t84 204t-84 204t-205 85h-164l131 -25v-553zM20 1434h576q297 0 507 -210t210 -507t-210 -507t-507 -210h-461v1319q0 47 -34 81t-81 34z" />
    <glyph glyph-name="E" unicode="E" horiz-adv-x="1155" 
d="M1135 399v-399h-1000v1319q0 47 -33.5 81t-81.5 34h1086v-400h-672l129 -26v-105h457v-399h-586l129 -27v-78h572z" />
    <glyph glyph-name="F" unicode="F" horiz-adv-x="1009" 
d="M989 1034h-557l131 -26v-105h283v-399h-414l131 -27v-477h-430v1319q0 47 -33 81t-80 34h969v-400z" />
    <glyph glyph-name="G" unicode="G" horiz-adv-x="1304" 
d="M1270 694v-692h-520q-299 2 -509 215t-210 513t213 512q214 212 500 212t489 -174l-254 -487q33 63 -14 120q-84 97 -206 97t-204 -82t-82 -198t82 -197.5t199 -81.5q33 0 63 6l25 -127v250q0 47 -34 80.5t-81 33.5h543z" />
    <glyph glyph-name="H" unicode="H" horiz-adv-x="1368" 
d="M1348 1434v-1434h-428v403h-488l131 -26v-377h-428v1319q0 47 -34 81t-81 34h543v-631h357v516q0 47 -34 81t-81 34h543z" />
    <glyph glyph-name="I" unicode="I" horiz-adv-x="583" 
d="M135 0v1319q0 47 -33.5 81t-81.5 34h543v-1434h-428z" />
    <glyph glyph-name="J" unicode="J" horiz-adv-x="1101" 
d="M1073 1434v-932q-1 -217 -153 -370q-152 -152 -369 -152t-370 152t-152 370h393q0 -55 38 -92t91 -37t91 37t38 92v512l127 26h-336v281q0 47 -34 80t-81 33h717z" />
    <glyph glyph-name="K" unicode="K" horiz-adv-x="1298" 
d="M1257 307v-307h-399v307q0 76 -53 129t-129 53h-242l129 -26v-463h-428v1319q0 47 -34 81t-81 34h543v-545h78l162 444q10 41 -11 71q-22 30 -67 30h553l-238 -643l-122 45q90 -49 114 -70q104 -82 164 -202t61 -257z" />
    <glyph glyph-name="L" unicode="L" horiz-adv-x="980" 
d="M961 399v-399h-826v1319q0 47 -33.5 81t-81.5 34h543v-1008l-129 -27h527z" />
    <glyph glyph-name="M" unicode="M" horiz-adv-x="1626" 
d="M1606 1434v-1434h-428v633l8 155l-174 -788h-285l-174 788l8 -155v-633h-428v1319q0 47 -33.5 81t-81.5 34h621l229 -822l199 707q12 47 -12.5 81t-69.5 34h621z" />
    <glyph glyph-name="N" unicode="N" horiz-adv-x="1425" 
d="M1405 0h-428l-473 803l59 -148v-655h-428v1319q0 47 -33.5 81t-81.5 34h543l471 -803l-57 147v541q0 47 -34 81t-81 34h543v-1434z" />
    <glyph glyph-name="O" unicode="O" horiz-adv-x="1513" 
d="M757 997q-116 0 -198 -81.5t-82 -197.5t82 -198t198 -82t197.5 82t81.5 198t-81.5 197.5t-197.5 81.5zM757 -20q-304 0 -520.5 216t-216.5 521t216.5 521t521.5 216t520 -216t215 -521t-216 -521t-520 -216z" />
    <glyph glyph-name="P" unicode="P" horiz-adv-x="1198" 
d="M563 889h142q31 -1 53 21t20 52q0 30 -22 52t-51 20h-142v-145zM20 1434h685q195 0 333 -138t140 -334q0 -196 -140 -334t-333 -139h-271l129 -26v-463h-428v1319q0 47 -34 81t-81 34z" />
    <glyph glyph-name="Q" unicode="Q" horiz-adv-x="1613" 
d="M1128 717q0 145 -104 249t-250 105q-146 0 -250 -104q-104 -103 -104 -249t104 -250t250 -103q43 0 76 8l-113 92l236 287l145 -119q10 45 10 84zM774 -37q-311 0 -532 221q-222 220 -222 532t222 533t532 221t532 -221t222 -532q0 -186 -86 -348l151 -123l-235 -289
l-271 223l84 -102q-184 -115 -397 -115z" />
    <glyph glyph-name="R" unicode="R" horiz-adv-x="1277" 
d="M563 791h123q49 0 85 34.5t36 86t-36 86t-85 34.5h-123v-241zM1257 209v-209h-399v209q0 76 -53 128t-129 52h-242l129 -24v-365h-428v1317q0 47 -33.5 81t-81.5 34h666q215 0 367.5 -153t152.5 -368q0 -162 -90 -293l-88 -96l88 66q141 -164 141 -379z" />
    <glyph glyph-name="S" unicode="S" horiz-adv-x="1175" 
d="M549 1008q0 -66 152 -107q153 -40 285 -126q66 -42 109.5 -124t43.5 -194q0 -186 -148.5 -339t-357.5 -153q-131 0 -240.5 24.5t-202.5 75.5t-137 113l-16 25l178 344q68 -100 188.5 -152.5t213 -40t92.5 73.5q0 78 -147 116q-148 38 -280 132q-64 45 -106.5 136
t-42.5 218q0 188 136.5 313t398.5 125q117 0 219 -42t147 -83l45 -43l-180 -344q-20 72 -107 109t-165 20.5t-78 -77.5z" />
    <glyph glyph-name="T" unicode="T" horiz-adv-x="1255" 
d="M1235 1434v-400h-465l129 -26v-1008h-428v1034h-336v285q0 47 -33.5 81t-81.5 34h1215z" />
    <glyph glyph-name="U" unicode="U" horiz-adv-x="1409" 
d="M1378 1434v-836q0 -256 -181 -437t-436 -181t-437.5 181t-182.5 437v723q0 45 -32.5 79t-77.5 34h538v-801q0 -80 55.5 -136.5t135.5 -56.5t136 56.5t54 136.5v688q0 47 -32.5 80t-79.5 33h540z" />
    <glyph glyph-name="V" unicode="V" horiz-adv-x="1378" 
d="M20 1434h553l160 -924l4 -129l164 938q8 47 -19 81q-28 34 -75 34h551l-293 -1434h-637l-268 1319q-10 47 -51 81t-89 34z" />
    <glyph glyph-name="W" unicode="W" horiz-adv-x="1921" 
d="M29 1434h542l115 -576l-14 -131l186 592q14 51 -9.5 83t-70.5 32h373l221 -707l-14 131l92 461q10 51 -17.5 83t-74.5 32h543l-285 -1434h-373l-221 840l-223 -840h-371l-264 1329q-14 45 -52 75t-83 30z" />
    <glyph glyph-name="X" unicode="X" horiz-adv-x="1386" 
d="M20 1434h551l152 -412l-21 -131l199 543h436l-247 -678l276 -756h-436l-193 526l-194 -526h-437l277 756l-207 563q-18 49 -62 82t-94 33z" />
    <glyph glyph-name="Y" unicode="Y" horiz-adv-x="1320" 
d="M20 1434h553l168 -463v-131l101 487q6 45 -20.5 76t-71.5 31h550l-292 -1432h-437l107 526h-209l-291 793q-18 49 -63 81t-95 32z" />
    <glyph glyph-name="Z" unicode="Z" horiz-adv-x="1165" 
d="M1112 420v-420h-1081l461 1014h-359v307q0 47 -33.5 80t-79.5 33h1125l-451 -988l-129 -26h547z" />
    <glyph glyph-name="bracketleft" unicode="[" horiz-adv-x="813" 
d="M793 1479h-359l129 -27v-1503h230v-400h-658v2214q0 47 -34 81t-81 34h773v-399z" />
    <glyph glyph-name="backslash" unicode="\" horiz-adv-x="937" 
d="M20 1565h551l347 -1694h-439l-321 1579q-8 47 -49 81t-89 34z" />
    <glyph glyph-name="bracketright" unicode="]" horiz-adv-x="813" 
d="M793 1878v-2329h-658v400h230v1503l129 27h-359v284q0 47 -34 81t-81 34h773z" />
    <glyph glyph-name="asciicircum" unicode="^" horiz-adv-x="1046" 
d="M211 981l-191 215l504 442l502 -442l-188 -215l-314 276z" />
    <glyph glyph-name="underscore" unicode="_" horiz-adv-x="1384" 
d="M1364 399v-399h-1229v285q0 47 -34 81t-81 33h1344z" />
    <glyph glyph-name="grave" unicode="`" horiz-adv-x="450" 
d="M20 2079h299l111 -543h-299z" />
    <glyph glyph-name="a" unicode="a" 
d="M702 588l-69 407l-72 -407h141zM199 1434h751l293 -1434h-438l-33 188h-416l129 -24l-26 -164h-439l271 1319q10 47 -18 81t-74 34z" />
    <glyph glyph-name="b" unicode="b" horiz-adv-x="1267" 
d="M535 395h247q33 0 56 23q22 24 22 56t-22 54t-56 23h-247v-156zM535 911h149q32 0 54 23q22 24 22 56t-23 54t-53 23h-149v-156zM1247 474q0 -196 -138 -335t-333 -139h-641v1319q0 47 -34 81t-81 34h656q184 0 314 -130t130 -315q0 -76 -30 -162l-74 -112l92 94
q139 -139 139 -335z" />
    <glyph glyph-name="c" unicode="c" horiz-adv-x="1308" 
d="M780 997q-120 0 -202 -82q-82 -81 -82 -197t82 -198t198 -82q82 0 150 44t102 116l219 -446q-201 -172 -471 -172q-305 0 -521 216t-216 521t216 521q215 216 505 216t497 -180l-257 -494q32 64 -15 121q-84 96 -205 96zM1000 780q-1 -3 -3 -6z" />
    <glyph glyph-name="d" unicode="d" horiz-adv-x="1333" 
d="M563 428h33q121 0 205 85t84 204t-84 204t-205 85h-164l131 -25v-553zM20 1434h576q297 0 507 -210t210 -507t-210 -507t-507 -210h-461v1319q0 47 -34 81t-81 34z" />
    <glyph glyph-name="e" unicode="e" horiz-adv-x="1155" 
d="M1135 399v-399h-1000v1319q0 47 -34 81t-81 34h1086v-400h-672l129 -26v-105h457v-399h-586l129 -27v-78h572z" />
    <glyph glyph-name="f" unicode="f" horiz-adv-x="1009" 
d="M989 1034h-557l131 -26v-105h283v-399h-414l131 -27v-477h-430v1319q0 47 -33 81t-80 34h969v-400z" />
    <glyph glyph-name="g" unicode="g" horiz-adv-x="1304" 
d="M1270 694v-692h-520q-299 2 -509 215t-210 513t213 512q214 212 500 212t489 -174l-254 -487q33 63 -14 120q-84 97 -206 97t-204 -82t-82 -198t82 -198t199 -81q33 0 63 6l25 -127v250q0 46 -34 80t-81 34h543z" />
    <glyph glyph-name="h" unicode="h" horiz-adv-x="1368" 
d="M1348 1434v-1434h-428v403h-488l131 -26v-377h-428v1319q0 47 -34 81t-81 34h543v-631h357v516q0 47 -34 81t-81 34h543z" />
    <glyph glyph-name="i" unicode="i" horiz-adv-x="583" 
d="M135 0v1319q0 47 -34 81t-81 34h543v-1434h-428z" />
    <glyph glyph-name="j" unicode="j" horiz-adv-x="1101" 
d="M1073 1434v-932q-1 -217 -153 -370q-152 -152 -369 -152t-370 152t-152 370h393q0 -55 38 -92t91 -37t91 37t38 92v512l127 26h-336v281q0 47 -34 80t-81 33h717z" />
    <glyph glyph-name="k" unicode="k" horiz-adv-x="1298" 
d="M1257 307v-307h-399v307q0 76 -53 129t-129 53h-242l129 -26v-463h-428v1319q0 47 -34 81t-81 34h543v-545h78l162 444q10 41 -11 71q-22 30 -67 30h553l-238 -643l-122 45q90 -49 114 -70q104 -82 164 -202t61 -257z" />
    <glyph glyph-name="l" unicode="l" horiz-adv-x="980" 
d="M961 399v-399h-826v1319q0 47 -34 81t-81 34h543v-1008l-129 -27h527z" />
    <glyph glyph-name="m" unicode="m" horiz-adv-x="1626" 
d="M1606 1434v-1434h-428v633l8 155l-174 -788h-285l-174 788l8 -155v-633h-428v1319q0 47 -34 81t-81 34h621l229 -822l199 707q12 47 -12 81q-25 34 -70 34h621z" />
    <glyph glyph-name="n" unicode="n" horiz-adv-x="1425" 
d="M1405 0h-428l-473 803l59 -148v-655h-428v1319q0 47 -34 81t-81 34h543l471 -803l-57 147v541q0 47 -34 81t-81 34h543v-1434z" />
    <glyph glyph-name="o" unicode="o" horiz-adv-x="1513" 
d="M757 438q115 0 197 82t82 198t-82 198t-197 81q-116 0 -198 -82q-82 -81 -82 -197t82 -198t198 -82zM757 -20q-304 0 -520 216t-217 521q0 305 216 521t522 216q305 0 520 -216t215 -521t-216 -521t-520 -216z" />
    <glyph glyph-name="p" unicode="p" horiz-adv-x="1198" 
d="M563 889h142q31 -1 53 21t20 52q0 30 -22 52t-51 20h-142v-145zM20 1434h685q195 0 333 -138t140 -334q0 -196 -140 -334t-333 -139h-271l129 -26v-463h-428v1319q0 47 -34 81t-81 34z" />
    <glyph glyph-name="q" unicode="q" horiz-adv-x="1613" 
d="M1128 717q0 145 -104 249t-250 105q-146 0 -250 -104q-104 -103 -104 -249t104 -250t250 -103q43 0 76 8l-113 92l236 287l145 -119q10 45 10 84zM774 -37q-311 0 -532 221q-222 220 -222 532t222 533t532 221t532 -221t222 -532q0 -186 -86 -348l151 -123l-235 -289
l-271 223l84 -102q-184 -115 -397 -115z" />
    <glyph glyph-name="r" unicode="r" horiz-adv-x="1277" 
d="M563 791h123q49 1 85 35t36 85t-36 86t-85 35h-123v-241zM1257 209v-209h-399v209q0 76 -53 128t-129 52h-242l129 -24v-365h-428v1317q0 47 -34 81t-81 34h666q215 0 368 -153t152 -368q0 -162 -90 -293l-88 -96l88 66q141 -164 141 -379z" />
    <glyph glyph-name="s" unicode="s" horiz-adv-x="1175" 
d="M549 1008q0 -68 151 -107t285 -126q66 -42 110 -124t44 -194q-1 -186 -149 -339t-357 -153q-131 0 -241 25t-203 76t-136 112l-16 25l178 344q69 -101 189 -153t212 -40t93 74q0 41 -43 71q-42 30 -106 46t-139 51t-138 80t-107 136q-43 91 -43 218q0 188 136 313
t399 125q117 0 219 -42t147 -83l45 -43l-180 -344q-20 72 -107 109t-165 21t-78 -78z" />
    <glyph glyph-name="t" unicode="t" horiz-adv-x="1255" 
d="M1235 1434v-400h-465l129 -26v-1008h-428v1034h-336v285q0 47 -34 81t-81 34h1215z" />
    <glyph glyph-name="u" unicode="u" horiz-adv-x="1409" 
d="M1378 1434v-836q0 -256 -181 -437t-436 -181t-437 181t-183 437v723q0 45 -32 79q-33 34 -78 34h538v-801q-1 -80 55 -136q56 -57 136 -57t136 56t54 137v688q0 47 -32 80q-33 33 -80 33h540z" />
    <glyph glyph-name="v" unicode="v" horiz-adv-x="1378" 
d="M20 1434h553l160 -924l4 -129l164 938q8 47 -19 81q-28 34 -75 34h551l-293 -1434h-637l-268 1319q-10 47 -51 81t-89 34z" />
    <glyph glyph-name="w" unicode="w" horiz-adv-x="1921" 
d="M29 1434h542l115 -576l-14 -131l186 592q14 51 -9 83q-24 32 -71 32h373l221 -707l-14 131l92 461q10 51 -17 83q-28 32 -75 32h543l-285 -1434h-373l-221 840l-223 -840h-371l-264 1329q-14 45 -52 75t-83 30z" />
    <glyph glyph-name="x" unicode="x" horiz-adv-x="1386" 
d="M20 1434h551l152 -412l-21 -131l199 543h436l-247 -678l276 -756h-436l-193 526l-194 -526h-437l277 756l-207 563q-18 49 -62 82t-94 33z" />
    <glyph glyph-name="y" unicode="y" horiz-adv-x="1320" 
d="M20 1434h553l168 -463v-131l101 487q6 45 -21 76t-71 31h550l-292 -1432h-437l107 526h-209l-291 793q-18 49 -63 81t-95 32z" />
    <glyph glyph-name="z" unicode="z" horiz-adv-x="1165" 
d="M1112 420v-420h-1081l461 1014h-359v307q0 47 -34 80t-79 33h1125l-451 -988l-129 -26h547z" />
    <glyph glyph-name="braceleft" unicode="{" horiz-adv-x="1044" 
d="M135 805q0 47 -34 81t-81 34l338 75q20 324 74 514q53 190 150 287q123 123 407 146l35 -426q-102 -12 -145 -31q-78 -131 -101 -654l-86 -114l86 -115q23 -532 101 -653q47 -23 145 -31l-35 -426q-285 23 -407 146q-96 96 -150 286q-53 190 -74 514l-223 76v291z" />
    <glyph glyph-name="bar" unicode="|" horiz-adv-x="514" 
d="M135 -266v1849q0 47 -34 81t-81 34h474v-1964h-359z" />
    <glyph glyph-name="braceright" unicode="}" horiz-adv-x="1009" 
d="M989 920v-406l-223 -76q-20 -324 -72 -513t-151 -287q-123 -123 -408 -146l-35 428q84 4 146 29q80 135 100 655l86 113l-86 114q-20 520 -100 656q-61 23 -146 29l27 313q4 47 -27 82t-77 39l112 -8q285 -23 408 -146q96 -96 149 -286t74 -515z" />
    <glyph glyph-name="asciitilde" unicode="~" horiz-adv-x="962" 
d="M20 727q76 119 209 145t258 -41q198 -101 359 -47q12 4 18 7l78 -93l-16 -22q-31 -56 -134 -105q-115 -55 -324 29q-122 49 -202 59t-145 -28z" />
    <glyph glyph-name="exclamdown" unicode="&#xa1;" horiz-adv-x="583" 
d="M563 0h-428v934q0 47 -34 81t-81 34h543v-1049zM135 1163v158q0 47 -34 80t-81 33h543v-271h-428z" />
    <glyph glyph-name="cent" unicode="&#xa2;" horiz-adv-x="1310" 
d="M449 717q-1 -92 45 -170t124 -123v588q-78 -45 -124 -124t-45 -171zM918 -180h-300v147q-258 59 -428 269t-170 481q0 270 170 480t428 269v33q0 47 -33 81q-34 34 -81 34h414v-139q211 -37 372 -177l-211 -405q-57 94 -161 139v-629q104 45 159 136l203 -410
q-160 -133 -362 -170v-139z" />
    <glyph glyph-name="sterling" unicode="&#xa3;" horiz-adv-x="1325" 
d="M1305 399v-399h-1170v297h16q9 0 33 9q51 19 72 72q20 54 20 109v86h-141v185q0 47 -34 81t-81 33h256v119q0 126 36 219t87 145t153 91t239 39q223 0 368 -119t146 -346h-400q0 41 -20 53t-98 12q-79 0 -95 -14q-16 -15 -16 -45v-154h170v-299h-299l127 -24
q-6 -61 -36 -98t-52 -44t-43 -8h762z" />
    <glyph glyph-name="currency" unicode="&#xa4;" horiz-adv-x="964" 
d="M482 606q46 0 81 33q33 33 32 79t-34 79t-78 33t-77 -34q-32 -32 -34 -78q0 -46 32 -79t78 -33zM944 969l-123 -125q45 -125 0 -252l123 -125l-211 -211l-125 125q-125 -47 -252 -2l-125 -123l-211 211l123 125q-45 127 2 252l-125 125l211 211l125 -123q127 45 252 0
l125 123z" />
    <glyph glyph-name="yen" unicode="&#xa5;" horiz-adv-x="1204" 
d="M817 0h-428v369h-291l39 186q10 47 -16 81q-27 34 -74 34h285l-312 764h437l145 -457l146 457h436l-312 -764h236l-64 -301h-356l129 -25v-344z" />
    <glyph glyph-name="brokenbar" unicode="&#xa6;" horiz-adv-x="514" 
d="M494 455v-721h-359v721h359zM135 977v606q0 47 -34 81t-81 34h474v-721h-359z" />
    <glyph glyph-name="section" unicode="&#xa7;" horiz-adv-x="1175" 
d="M713 737q0 61 -97 99q-70 -16 -69 -76q0 -53 102 -90q64 16 64 67zM547 1333q0 -72 156 -111t294 -127q68 -44 113 -129t45 -200q0 -156 -102 -293q102 -105 102 -289t-153 -341t-367 -156q-336 0 -537 156q-45 36 -61 63l-17 24l185 355q71 -103 195 -157t218 -41t95 77
q1 49 -61 81q-62 33 -149 61t-174 73t-149 148q-61 103 -61 259t92 269q-92 117 -92 307t141 318t410 128q121 0 226 -43t153 -86l45 -43l-185 -354q-20 74 -110 112t-171 20t-81 -81z" />
    <glyph glyph-name="dieresis" unicode="&#xa8;" horiz-adv-x="942" 
d="M563 1894h359v-358h-359v358zM20 1894h359v-358h-359v358z" />
    <glyph glyph-name="guillemotleft" unicode="&#xab;" horiz-adv-x="1210" 
d="M1190 430l-215 -190l-443 503l443 502l215 -188l-277 -314zM678 430l-215 -190l-443 503l443 502l215 -188l-277 -314z" />
    <glyph glyph-name="logicalnot" unicode="&#xac;" horiz-adv-x="1343" 
d="M1323 895v-551h-428v193h-760v243q0 47 -34 81t-81 34h1303z" />
    <glyph glyph-name="macron" unicode="&#xaf;" horiz-adv-x="1167" 
d="M20 1853h1127v-317h-1127v317z" />
    <glyph glyph-name="degree" unicode="&#xb0;" horiz-adv-x="761" 
d="M494 1693q0 47 -33 79t-79 32t-79 -32t-33 -78q0 -47 33 -80t78 -33t79 33t34 79zM381 1331q-150 1 -255 107t-106 256q0 150 106 255t255 105q150 0 255 -105t105 -255t-105 -256t-255 -107z" />
    <glyph glyph-name="plusminus" unicode="&#xb1;" horiz-adv-x="1261" 
d="M1241 358v-358h-1106v244q0 47 -34 81t-81 33h1221zM1241 1157v-354h-375v-377h-356v377h-375v352h375v264q0 47 -34 81t-81 34h471v-377h375z" />
    <glyph glyph-name="acute" unicode="&#xb4;" horiz-adv-x="423" 
d="M20 1536l84 408h299l-84 -408h-299z" />
    <glyph glyph-name="paragraph" unicode="&#xb6;" horiz-adv-x="1314" 
d="M1294 1577v-1720h-358v1321h-82v-1321h-360v776q-197 0 -335 138q-139 138 -139 334t138 334t336 138h800z" />
    <glyph glyph-name="periodcentered" unicode="&#xb7;" horiz-adv-x="555" 
d="M535 512h-400v285q0 47 -34 81t-81 33h515v-399z" />
    <glyph glyph-name="cedilla" unicode="&#xb8;" horiz-adv-x="587" 
d="M567 -278.5q0 -47.5 -9 -83t-33.5 -79.5t-84 -72t-162 -28t-180.5 61t-78 191h187q0 -23 15.5 -39t37.5 -16h64q25 0 39 17.5t14 37.5q0 68 -47 103.5t-97 38.5l-47 4l52 143h174l-52 -70q27 0 68 -16t67.5 -36.5t49 -64.5t22.5 -91.5z" />
    <glyph glyph-name="guillemotright" unicode="&#xbb;" horiz-adv-x="1210" 
d="M1190 743l-442 -503l-216 190l277 313l-277 314l216 188zM678 743l-442 -503l-216 190l277 313l-277 314l216 188z" />
    <glyph glyph-name="questiondown" unicode="&#xbf;" horiz-adv-x="1077" 
d="M625 -172q-260 0 -402 128q-141 128 -141 323q0 117 36 217t87 167t101 123q122 135 122 213h444q0 -170 -127 -302q-53 -56 -107 -110q-128 -128 -128 -255q0 -82 91 -105t181 25t90 131l185 -383q-172 -172 -432 -172zM430 1561h442v-443h-557q47 0 81 34t34 81v328z
" />
    <glyph glyph-name="Agrave" unicode="&#xc0;" 
d="M702 588l-69 407l-72 -407h141zM199 1434h751l293 -1434h-438l-33 188h-416l129 -24l-26 -164h-439l271 1319q10 47 -18 81t-74 34zM367 2079h299l110 -543h-299z" />
    <glyph glyph-name="Aacute" unicode="&#xc1;" 
d="M702 588l-69 407l-72 -407h141zM199 1434h751l293 -1434h-438l-33 188h-416l129 -24l-26 -164h-439l271 1319q10 47 -18 81t-74 34zM494 1536l84 408h299l-84 -408h-299z" />
    <glyph glyph-name="Acircumflex" unicode="&#xc2;" 
d="M702 588l-69 407l-72 -407h141zM199 1434h751l293 -1434h-438l-33 188h-416l129 -24l-26 -164h-439l271 1319q10 47 -18 81t-74 34zM1262 1755l-156 -239l-473 309l-473 -309l-156 239l629 412z" />
    <glyph glyph-name="Atilde" unicode="&#xc3;" 
d="M702 588l-69 407l-72 -407h141zM199 1434h751l293 -1434h-438l-33 188h-416l129 -24l-26 -164h-439l271 1319q10 47 -18 81t-74 34zM223 1708q152 236 406 104q197 -100 303 -47q8 4 12 7l78 -93l-10 -24q-17 -50 -101 -99q-91 -54 -299 30q-119 48 -174 54t-114 -28z
" />
    <glyph glyph-name="Adieresis" unicode="&#xc4;" 
d="M702 588l-69 407l-72 -407h141zM199 1434h751l293 -1434h-438l-33 188h-416l129 -24l-26 -164h-439l271 1319q10 47 -18 81t-74 34zM725 1894h358v-358h-358v358zM182 1894h359v-358h-359v358z" />
    <glyph glyph-name="Aring" unicode="&#xc5;" 
d="M702 588l-69 407l-72 -407h141zM199 1434h751l293 -1434h-438l-33 188h-416l129 -24l-26 -164h-439l271 1319q10 47 -18 81t-74 34zM633 2009q-47 0 -79 -32t-32 -79q0 -48 33 -80t79 -32t79 33t33 79t-33 78q-33 33 -80 33zM633 1536q-150 0 -255 106t-106 256
q0 150 106 255t255 105q150 0 255 -104q105 -106 105 -256t-105 -256t-255 -106z" />
    <glyph glyph-name="AE" unicode="&#xc6;" horiz-adv-x="1652" 
d="M633 588v407l-72 -407h72zM1632 399v-399h-999v188h-275l129 -24l-28 -164h-439l271 1319q10 47 -18 81t-74 34h1405v-400h-672l129 -24v-107h457v-399h-586l129 -27v-78h571z" />
    <glyph glyph-name="Ccedilla" unicode="&#xc7;" horiz-adv-x="1308" 
d="M1104 -278q0 -48 -9 -84t-34 -79q-25 -44 -84 -72t-162 -28t-181 61t-77 191h186q-1 -23 15 -39t39 -16h63q25 0 39 17t14 38q0 68 -47 104t-96 38l-47 4l43 123q-301 2 -514 219t-213 520t216 519q215 216 505 216t497 -180l-257 -494q32 64 -15 121q-84 96 -205 96
q-120 0 -202 -82q-82 -81 -82 -197t82 -198t198 -82q82 0 150 44q67 44 102 116l219 -446q-131 -113 -299 -152l-51 -70q27 0 68 -16t67 -36t50 -65q22 -43 22 -91zM1000 780q-1 -3 -3 -6z" />
    <glyph glyph-name="Egrave" unicode="&#xc8;" horiz-adv-x="1155" 
d="M1135 399v-399h-1000v1319q0 47 -34 81t-81 34h1086v-400h-672l129 -26v-105h457v-399h-586l129 -27v-78h572zM336 2079h299l110 -543h-299z" />
    <glyph glyph-name="Eacute" unicode="&#xc9;" horiz-adv-x="1155" 
d="M1135 399v-399h-1000v1319q0 47 -34 81t-81 34h1086v-400h-672l129 -26v-105h457v-399h-586l129 -27v-78h572zM463 1536l84 408h299l-84 -408h-299z" />
    <glyph glyph-name="Ecircumflex" unicode="&#xca;" horiz-adv-x="1155" 
d="M1135 399v-399h-1000v1319q0 47 -34 81t-81 34h1086v-400h-672l129 -26v-105h457v-399h-586l129 -27v-78h572zM1231 1755l-156 -239l-473 309l-473 -309l-156 239l629 412z" />
    <glyph glyph-name="Edieresis" unicode="&#xcb;" horiz-adv-x="1155" 
d="M1135 399v-399h-1000v1319q0 47 -34 81t-81 34h1086v-400h-672l129 -26v-105h457v-399h-586l129 -27v-78h572zM694 1894h359v-358h-359v358zM152 1894h358v-358h-358v358z" />
    <glyph glyph-name="Igrave" unicode="&#xcc;" horiz-adv-x="583" 
d="M135 0v1319q0 47 -34 81t-81 34h543v-1434h-428zM82 2079h299l111 -543h-299z" />
    <glyph glyph-name="Iacute" unicode="&#xcd;" horiz-adv-x="583" 
d="M135 0v1319q0 47 -34 81t-81 34h543v-1434h-428zM209 1536l84 408h299l-84 -408h-299z" />
    <glyph glyph-name="Icircumflex" unicode="&#xce;" horiz-adv-x="583" 
d="M135 0v1319q0 47 -34 81t-81 34h543v-1434h-428zM977 1755l-156 -239l-473 309l-473 -309l-156 239l629 412z" />
    <glyph glyph-name="Idieresis" unicode="&#xcf;" horiz-adv-x="583" 
d="M135 0v1319q0 47 -34 81t-81 34h543v-1434h-428zM440 1894h359v-358h-359v358zM-102 1894h358v-358h-358v358z" />
    <glyph glyph-name="Eth" unicode="&#xd0;" horiz-adv-x="1386" 
d="M616 426h33q119 0 204 85t85 205t-84 205t-205 85h-162l129 -25v-115h162v-301h-162v-139zM74 1434h575q297 0 507 -210t210 -507t-210 -508t-507 -211h-461v567h-168v301h168v453q0 47 -33 81q-34 34 -81 34z" />
    <glyph glyph-name="Ntilde" unicode="&#xd1;" horiz-adv-x="1425" 
d="M1405 0h-428l-473 803l59 -148v-655h-428v1319q0 47 -34 81t-81 34h543l471 -803l-57 147v541q0 47 -34 81t-81 34h543v-1434zM322 1708q152 236 405 104q197 -100 303 -47q8 4 12 7l78 -93l-10 -24q-17 -49 -100 -99q-92 -54 -300 30q-120 48 -174 54t-114 -28z" />
    <glyph glyph-name="Ograve" unicode="&#xd2;" horiz-adv-x="1513" 
d="M757 438q115 0 197 82t82 198t-82 198t-197 81q-116 0 -198 -82q-82 -81 -82 -197t82 -198t198 -82zM757 -20q-304 0 -520 216t-217 521q0 305 216 521t522 216q305 0 520 -216t215 -521t-216 -521t-520 -216zM492 2099h299l110 -543h-299z" />
    <glyph glyph-name="Oacute" unicode="&#xd3;" horiz-adv-x="1513" 
d="M757 438q115 0 197 82t82 198t-82 198t-197 81q-116 0 -198 -82q-82 -81 -82 -197t82 -198t198 -82zM757 -20q-304 0 -520 216t-217 521q0 305 216 521t522 216q305 0 520 -216t215 -521t-216 -521t-520 -216zM618 1556l84 408h299l-83 -408h-300z" />
    <glyph glyph-name="Ocircumflex" unicode="&#xd4;" horiz-adv-x="1513" 
d="M757 438q115 0 197 82t82 198t-82 198t-197 81q-116 0 -198 -82q-82 -81 -82 -197t82 -198t198 -82zM757 -20q-304 0 -520 216t-217 521q0 305 216 521t522 216q305 0 520 -216t215 -521t-216 -521t-520 -216zM1386 1776l-155 -240l-473 309l-473 -309l-156 240l629 411z
" />
    <glyph glyph-name="Otilde" unicode="&#xd5;" horiz-adv-x="1513" 
d="M757 438q115 0 197 82t82 198t-82 198t-197 81q-116 0 -198 -82q-82 -81 -82 -197t82 -198t198 -82zM757 -20q-304 0 -520 216t-217 521q0 305 216 521t522 216q305 0 520 -216t215 -521t-216 -521t-520 -216zM348 1729q152 236 406 104q197 -100 303 -47l12 6l78 -92
l-8 -25q-23 -53 -103 -98q-92 -54 -299 29q-119 48 -174 54t-114 -28z" />
    <glyph glyph-name="Odieresis" unicode="&#xd6;" horiz-adv-x="1513" 
d="M757 438q115 0 197 82t82 198t-82 198t-197 81q-116 0 -198 -82q-82 -81 -82 -197t82 -198t198 -82zM757 -20q-304 0 -520 216t-217 521q0 305 216 521t522 216q305 0 520 -216t215 -521t-216 -521t-520 -216zM850 1915h358v-359h-358v359zM307 1915h359v-359h-359v359z
" />
    <glyph glyph-name="multiply" unicode="&#xd7;" horiz-adv-x="1277" 
d="M891 715l366 -367l-251 -250l-367 367l-367 -369l-252 254l367 367l-367 366l252 250l365 -366l369 368l251 -254z" />
    <glyph glyph-name="Oslash" unicode="&#xd8;" horiz-adv-x="1574" 
d="M1116 723q0 137 -98 235l-111 -542q92 37 150.5 121t58.5 186zM459 706q0 -119 96 -219l113 543q-94 -37 -151.5 -121t-57.5 -203zM1532 723q0 -299 -208 -516t-505 -230l-16 -77h-367l31 149q-193 92 -308.5 273.5t-115.5 400.5q0 299 207 515t506 228l16 78h367
l-33 -149q193 -90 309.5 -271.5t116.5 -400.5z" />
    <glyph glyph-name="Ugrave" unicode="&#xd9;" horiz-adv-x="1409" 
d="M1378 1434v-836q0 -256 -181 -437t-436 -181t-437 181t-183 437v723q0 45 -32 79q-33 34 -78 34h538v-801q-1 -80 55 -136q56 -57 136 -57t136 56t54 137v688q0 47 -32 80q-33 33 -80 33h540zM496 2079h299l110 -543h-299z" />
    <glyph glyph-name="Uacute" unicode="&#xda;" horiz-adv-x="1409" 
d="M1378 1434v-836q0 -256 -181 -437t-436 -181t-437 181t-183 437v723q0 45 -32 79q-33 34 -78 34h538v-801q-1 -80 55 -136q56 -57 136 -57t136 56t54 137v688q0 47 -32 80q-33 33 -80 33h540zM623 1536l84 408h299l-84 -408h-299z" />
    <glyph glyph-name="Ucircumflex" unicode="&#xdb;" horiz-adv-x="1409" 
d="M1378 1434v-836q0 -256 -181 -437t-436 -181t-437 181t-183 437v723q0 45 -32 79q-33 34 -78 34h538v-801q-1 -80 55 -136q56 -57 136 -57t136 56t54 137v688q0 47 -32 80q-33 33 -80 33h540zM1391 1755l-156 -239l-473 309l-473 -309l-156 239l629 412z" />
    <glyph glyph-name="Udieresis" unicode="&#xdc;" horiz-adv-x="1409" 
d="M1378 1434v-836q0 -256 -181 -437t-436 -181t-437 181t-183 437v723q0 45 -32 79q-33 34 -78 34h538v-801q-1 -80 55 -136q56 -57 136 -57t136 56t54 137v688q0 47 -32 80q-33 33 -80 33h540zM854 1894h358v-358h-358v358zM311 1894h359v-358h-359v358z" />
    <glyph glyph-name="Yacute" unicode="&#xdd;" horiz-adv-x="1320" 
d="M20 1434h553l168 -463v-131l101 487q6 45 -21 76t-71 31h550l-292 -1432h-437l107 526h-209l-291 793q-18 49 -63 81t-95 32zM582 1536l84 408h299l-84 -408h-299z" />
    <glyph glyph-name="Thorn" unicode="&#xde;" horiz-adv-x="1198" 
d="M563 664h142q31 0 53 22t20 50q0 30 -22 52t-51 21h-142v-145zM563 1208h142q197 0 335 -138t138 -334t-138 -334t-335 -138h-271l129 -24v-240h-428v1358q0 47 -34 81t-81 34h543v-265z" />
    <glyph glyph-name="agrave" unicode="&#xe0;" 
d="M702 588l-69 407l-72 -407h141zM199 1434h751l293 -1434h-438l-33 188h-416l129 -24l-26 -164h-439l271 1319q10 47 -18 81t-74 34zM367 2079h299l110 -543h-299z" />
    <glyph glyph-name="aacute" unicode="&#xe1;" 
d="M702 588l-69 407l-72 -407h141zM199 1434h751l293 -1434h-438l-33 188h-416l129 -24l-26 -164h-439l271 1319q10 47 -18 81t-74 34zM494 1536l84 408h299l-84 -408h-299z" />
    <glyph glyph-name="acircumflex" unicode="&#xe2;" 
d="M702 588l-69 407l-72 -407h141zM199 1434h751l293 -1434h-438l-33 188h-416l129 -24l-26 -164h-439l271 1319q10 47 -18 81t-74 34zM1262 1755l-156 -239l-473 309l-473 -309l-156 239l629 412z" />
    <glyph glyph-name="atilde" unicode="&#xe3;" 
d="M702 588l-69 407l-72 -407h141zM199 1434h751l293 -1434h-438l-33 188h-416l129 -24l-26 -164h-439l271 1319q10 47 -18 81t-74 34zM223 1708q152 236 406 104q197 -100 303 -47q8 4 12 7l78 -93l-10 -24q-17 -50 -101 -99q-91 -54 -299 30q-119 48 -174 54t-114 -28z
" />
    <glyph glyph-name="adieresis" unicode="&#xe4;" 
d="M702 588l-69 407l-72 -407h141zM199 1434h751l293 -1434h-438l-33 188h-416l129 -24l-26 -164h-439l271 1319q10 47 -18 81t-74 34zM725 1894h358v-358h-358v358zM182 1894h359v-358h-359v358z" />
    <glyph glyph-name="aring" unicode="&#xe5;" 
d="M702 588l-69 407l-72 -407h141zM199 1434h751l293 -1434h-438l-33 188h-416l129 -24l-26 -164h-439l271 1319q10 47 -18 81t-74 34zM633 2009q-47 0 -79 -32t-32 -79q0 -48 33 -80t79 -32t79 33t33 79t-33 78q-33 33 -80 33zM633 1536q-150 0 -255 106t-106 256
q0 150 106 255t255 105q150 0 255 -104q105 -106 105 -256t-105 -256t-255 -106z" />
    <glyph glyph-name="ae" unicode="&#xe6;" horiz-adv-x="1652" 
d="M633 588v407l-72 -407h72zM1632 399v-399h-999v188h-275l129 -24l-28 -164h-439l271 1319q10 47 -18 81t-74 34h1405v-400h-672l129 -24v-107h457v-399h-586l129 -27v-78h571z" />
    <glyph glyph-name="ccedilla" unicode="&#xe7;" horiz-adv-x="1308" 
d="M1104 -278q0 -48 -9 -84t-34 -79q-25 -44 -84 -72t-162 -28t-181 61t-77 191h186q-1 -23 15 -39t39 -16h63q25 0 39 17t14 38q0 68 -47 104t-96 38l-47 4l43 123q-301 2 -514 219t-213 520t216 519q215 216 505 216t497 -180l-257 -494q32 64 -15 121q-84 96 -205 96
q-120 0 -202 -82q-82 -81 -82 -197t82 -198t198 -82q82 0 150 44q67 44 102 116l219 -446q-131 -113 -299 -152l-51 -70q27 0 68 -16t67 -36t50 -65q22 -43 22 -91zM1000 780q-1 -3 -3 -6z" />
    <glyph glyph-name="egrave" unicode="&#xe8;" horiz-adv-x="1155" 
d="M1135 399v-399h-1000v1319q0 47 -34 81t-81 34h1086v-400h-672l129 -26v-105h457v-399h-586l129 -27v-78h572zM336 2079h299l110 -543h-299z" />
    <glyph glyph-name="eacute" unicode="&#xe9;" horiz-adv-x="1155" 
d="M1135 399v-399h-1000v1319q0 47 -34 81t-81 34h1086v-400h-672l129 -26v-105h457v-399h-586l129 -27v-78h572zM463 1536l84 408h299l-84 -408h-299z" />
    <glyph glyph-name="ecircumflex" unicode="&#xea;" horiz-adv-x="1155" 
d="M1135 399v-399h-1000v1319q0 47 -34 81t-81 34h1086v-400h-672l129 -26v-105h457v-399h-586l129 -27v-78h572zM1231 1755l-156 -239l-473 309l-473 -309l-156 239l629 412z" />
    <glyph glyph-name="edieresis" unicode="&#xeb;" horiz-adv-x="1155" 
d="M1135 399v-399h-1000v1319q0 47 -34 81t-81 34h1086v-400h-672l129 -26v-105h457v-399h-586l129 -27v-78h572zM694 1894h359v-358h-359v358zM152 1894h358v-358h-358v358z" />
    <glyph glyph-name="igrave" unicode="&#xec;" horiz-adv-x="583" 
d="M135 0v1319q0 47 -34 81t-81 34h543v-1434h-428zM82 2079h299l111 -543h-299z" />
    <glyph glyph-name="iacute" unicode="&#xed;" horiz-adv-x="583" 
d="M135 0v1319q0 47 -34 81t-81 34h543v-1434h-428zM209 1536l84 408h299l-84 -408h-299z" />
    <glyph glyph-name="icircumflex" unicode="&#xee;" horiz-adv-x="583" 
d="M135 0v1319q0 47 -34 81t-81 34h543v-1434h-428zM977 1755l-156 -239l-473 309l-473 -309l-156 239l629 412z" />
    <glyph glyph-name="idieresis" unicode="&#xef;" horiz-adv-x="583" 
d="M135 0v1319q0 47 -34 81t-81 34h543v-1434h-428zM440 1894h359v-358h-359v358zM-102 1894h358v-358h-358v358z" />
    <glyph glyph-name="ntilde" unicode="&#xf1;" horiz-adv-x="1425" 
d="M1405 0h-428l-473 803l59 -148v-655h-428v1319q0 47 -34 81t-81 34h543l471 -803l-57 147v541q0 47 -34 81t-81 34h543v-1434zM365 1708q152 236 405 104q197 -100 303 -47q8 4 12 7l78 -93l-8 -24q-22 -51 -102 -99q-92 -54 -300 30q-119 48 -173 54t-115 -28z" />
    <glyph glyph-name="ograve" unicode="&#xf2;" horiz-adv-x="1513" 
d="M757 438q115 0 197 82t82 198t-82 198t-197 81q-116 0 -198 -82q-82 -81 -82 -197t82 -198t198 -82zM757 -20q-304 0 -520 216t-217 521q0 305 216 521t522 216q305 0 520 -216t215 -521t-216 -521t-520 -216zM492 2099h299l110 -543h-299z" />
    <glyph glyph-name="oacute" unicode="&#xf3;" horiz-adv-x="1513" 
d="M757 438q115 0 197 82t82 198t-82 198t-197 81q-116 0 -198 -82q-82 -81 -82 -197t82 -198t198 -82zM757 -20q-304 0 -520 216t-217 521q0 305 216 521t522 216q305 0 520 -216t215 -521t-216 -521t-520 -216zM618 1556l84 408h299l-83 -408h-300z" />
    <glyph glyph-name="ocircumflex" unicode="&#xf4;" horiz-adv-x="1513" 
d="M757 438q115 0 197 82t82 198t-82 198t-197 81q-116 0 -198 -82q-82 -81 -82 -197t82 -198t198 -82zM757 -20q-304 0 -520 216t-217 521q0 305 216 521t522 216q305 0 520 -216t215 -521t-216 -521t-520 -216zM1386 1776l-155 -240l-473 309l-473 -309l-156 240l629 411z
" />
    <glyph glyph-name="otilde" unicode="&#xf5;" horiz-adv-x="1513" 
d="M757 438q115 0 197 82t82 198t-82 198t-197 81q-116 0 -198 -82q-82 -81 -82 -197t82 -198t198 -82zM757 -20q-304 0 -520 216t-217 521q0 305 216 521t522 216q305 0 520 -216t215 -521t-216 -521t-520 -216zM348 1729q152 236 406 104q197 -100 303 -47l12 6l78 -92
l-8 -25q-23 -53 -103 -98q-92 -54 -299 29q-119 48 -174 54t-114 -28z" />
    <glyph glyph-name="odieresis" unicode="&#xf6;" horiz-adv-x="1513" 
d="M757 438q115 0 197 82t82 198t-82 198t-197 81q-116 0 -198 -82q-82 -81 -82 -197t82 -198t198 -82zM757 -20q-304 0 -520 216t-217 521q0 305 216 521t522 216q305 0 520 -216t215 -521t-216 -521t-520 -216zM850 1915h358v-359h-358v359zM307 1915h359v-359h-359v359z
" />
    <glyph glyph-name="divide" unicode="&#xf7;" horiz-adv-x="1753" 
d="M735 455h400v-400h-400v400zM1733 895v-358h-1598v243q0 47 -34 81t-81 34h1713zM1135 979h-400v399h400v-399z" />
    <glyph glyph-name="oslash" unicode="&#xf8;" horiz-adv-x="1574" 
d="M1116 723q0 137 -98 235l-111 -542q92 37 151 121q58 84 58 186zM459 706q0 -119 96 -219l113 543q-94 -37 -152 -121t-57 -203zM1532 723q0 -299 -208 -516t-505 -230l-16 -77h-367l31 149q-193 91 -309 273t-115 401q0 299 207 515t506 228l16 78h367l-33 -149
q194 -89 310 -271t116 -401z" />
    <glyph glyph-name="ugrave" unicode="&#xf9;" horiz-adv-x="1409" 
d="M1378 1434v-836q0 -256 -181 -437t-436 -181t-437 181t-183 437v723q0 45 -32 79q-33 34 -78 34h538v-801q-1 -80 55 -136q56 -57 136 -57t136 56t54 137v688q0 47 -32 80q-33 33 -80 33h540zM496 2079h299l110 -543h-299z" />
    <glyph glyph-name="uacute" unicode="&#xfa;" horiz-adv-x="1409" 
d="M1378 1434v-836q0 -256 -181 -437t-436 -181t-437 181t-183 437v723q0 45 -32 79q-33 34 -78 34h538v-801q-1 -80 55 -136q56 -57 136 -57t136 56t54 137v688q0 47 -32 80q-33 33 -80 33h540zM623 1536l84 408h299l-84 -408h-299z" />
    <glyph glyph-name="ucircumflex" unicode="&#xfb;" horiz-adv-x="1409" 
d="M1378 1434v-836q0 -256 -181 -437t-436 -181t-437 181t-183 437v723q0 45 -32 79q-33 34 -78 34h538v-801q-1 -80 55 -136q56 -57 136 -57t136 56t54 137v688q0 47 -32 80q-33 33 -80 33h540zM1391 1755l-156 -239l-473 309l-473 -309l-156 239l629 412z" />
    <glyph glyph-name="udieresis" unicode="&#xfc;" horiz-adv-x="1409" 
d="M1378 1434v-836q0 -256 -181 -437t-436 -181t-437 181t-183 437v723q0 45 -32 79q-33 34 -78 34h538v-801q-1 -80 55 -136q56 -57 136 -57t136 56t54 137v688q0 47 -32 80q-33 33 -80 33h540zM854 1894h358v-358h-358v358zM311 1894h359v-358h-359v358z" />
    <glyph glyph-name="yacute" unicode="&#xfd;" horiz-adv-x="1320" 
d="M20 1434h553l168 -463v-131l101 487q6 45 -21 76t-71 31h550l-292 -1432h-437l107 526h-209l-291 793q-18 49 -63 81t-95 32zM582 1536l84 408h299l-84 -408h-299z" />
    <glyph glyph-name="thorn" unicode="&#xfe;" horiz-adv-x="1198" 
d="M563 664h142q31 0 53 22t20 50q0 30 -22 52t-51 21h-142v-145zM563 1208h142q197 0 335 -138t138 -334t-138 -334t-335 -138h-271l129 -24v-240h-428v1358q0 47 -34 81t-81 34h543v-265z" />
    <glyph glyph-name="ydieresis" unicode="&#xff;" horiz-adv-x="1320" 
d="M20 1434h553l168 -463v-131l101 487q6 45 -21 76t-71 31h550l-292 -1432h-437l107 526h-209l-291 793q-18 49 -63 81t-95 32zM813 1894h358v-358h-358v358zM270 1894h359v-358h-359v358z" />
    <glyph glyph-name="Amacron" unicode="&#x100;" 
d="M702 588l-69 407l-72 -407h141zM199 1434h751l293 -1434h-438l-33 188h-416l129 -24l-26 -164h-439l271 1319q10 47 -18 81t-74 34zM70 1853h1126v-317h-1126v317z" />
    <glyph glyph-name="amacron" unicode="&#x101;" 
d="M702 588l-69 407l-72 -407h141zM199 1434h751l293 -1434h-438l-33 188h-416l129 -24l-26 -164h-439l271 1319q10 47 -18 81t-74 34zM70 1853h1126v-317h-1126v317z" />
    <glyph glyph-name="Abreve" unicode="&#x102;" 
d="M702 588l-69 407l-72 -407h141zM199 1434h751l293 -1434h-438l-33 188h-416l129 -24l-26 -164h-439l271 1319q10 47 -18 81t-74 34zM632 1536q-116 0 -224 31q-176 50 -303 157q-75 63 -101 101l156 239l20 -24q130 -130 297 -179q78 -24 156 -24t157 25q133 42 211 108
q79 66 105 94l156 -239l-25 -31q-66 -77 -169 -138q-104 -60 -212 -90t-224 -30z" />
    <glyph glyph-name="abreve" unicode="&#x103;" 
d="M702 588l-69 407l-72 -407h141zM199 1434h751l293 -1434h-438l-33 188h-416l129 -24l-26 -164h-439l271 1319q10 47 -18 81t-74 34zM632 1536q-116 0 -224 31q-176 50 -303 157q-75 63 -101 101l156 239l20 -24q130 -130 297 -179q78 -24 156 -24t157 25q133 42 211 108
q79 66 105 94l156 -239l-25 -31q-66 -77 -169 -138q-104 -60 -212 -90t-224 -30z" />
    <glyph glyph-name="Aogonek" unicode="&#x104;" 
d="M702 588l-69 407l-72 -407h141zM1028 -471q-272 0 -272 211q0 70 51 134t102 95l54 31h-158l-33 188h-416l129 -24l-26 -164h-439l271 1319q10 47 -18 81t-74 34h751l293 -1434h-127q-6 -4 -18 -10q-89 -44 -132 -123q-43 -78 2 -120t124 -9q27 11 49 37l159 -35
q-12 -98 -81 -156q-72 -55 -191 -55z" />
    <glyph glyph-name="aogonek" unicode="&#x105;" 
d="M702 588l-69 407l-72 -407h141zM293 -471q-272 0 -273 211q0 70 52 134t104 95l51 31h-207l271 1319q10 47 -18 81t-74 34h751l293 -1434h-438l-33 188h-416l129 -24l-26 -164h-78q-7 -4 -19 -10t-40 -26q-110 -76 -111 -165q1 -31 23 -53t59 -20q72 0 113 49l159 -35
q-12 -98 -82 -154t-190 -57z" />
    <glyph glyph-name="Cacute" unicode="&#x106;" horiz-adv-x="1308" 
d="M637 1556l84 408h299l-84 -408h-299zM780 997q-120 0 -202 -82q-82 -81 -82 -197t82 -198t198 -82q82 0 150 44t102 116l219 -446q-201 -172 -471 -172q-305 0 -521 216t-216 521t216 521q215 216 505 216t497 -180l-257 -494q32 64 -15 121q-84 96 -205 96zM1000 780
q-1 -3 -3 -6z" />
    <glyph glyph-name="cacute" unicode="&#x107;" horiz-adv-x="1308" 
d="M637 1556l84 408h299l-84 -408h-299zM780 997q-120 0 -202 -82q-82 -81 -82 -197t82 -198t198 -82q82 0 150 44t102 116l219 -446q-201 -172 -471 -172q-305 0 -521 216t-216 521t216 521q215 216 505 216t497 -180l-257 -494q32 64 -15 121q-84 96 -205 96zM1000 780
q-1 -3 -3 -6z" />
    <glyph glyph-name="Cdotaccent" unicode="&#x10a;" horiz-adv-x="1308" 
d="M598 1915h358v-359h-358v359zM780 997q-120 0 -202 -82q-82 -81 -82 -197t82 -198t198 -82q82 0 150 44t102 116l219 -446q-201 -172 -471 -172q-305 0 -521 216t-216 521t216 521q215 216 505 216t497 -180l-257 -494q32 64 -15 121q-84 96 -205 96zM1000 780
q-1 -3 -3 -6z" />
    <glyph glyph-name="cdotaccent" unicode="&#x10b;" horiz-adv-x="1308" 
d="M598 1915h358v-359h-358v359zM780 997q-120 0 -202 -82q-82 -81 -82 -197t82 -198t198 -82q82 0 150 44t102 116l219 -446q-201 -172 -471 -172q-305 0 -521 216t-216 521t216 521q215 216 505 216t497 -180l-257 -494q32 64 -15 121q-84 96 -205 96zM1000 780
q-1 -3 -3 -6z" />
    <glyph glyph-name="Ccaron" unicode="&#x10c;" horiz-adv-x="1308" 
d="M776 1878l473 309l156 -239l-629 -412l-629 412l156 239zM780 997q-120 0 -202 -82q-82 -81 -82 -197t82 -198t198 -82q82 0 150 44t102 116l219 -446q-201 -172 -471 -172q-305 0 -521 216t-216 521t216 521q215 216 505 216t497 -180l-257 -494q32 64 -15 121
q-84 96 -205 96zM1000 780q-1 -3 -3 -6z" />
    <glyph glyph-name="ccaron" unicode="&#x10d;" horiz-adv-x="1308" 
d="M776 1878l473 309l156 -239l-629 -412l-629 412l156 239zM780 997q-120 0 -202 -82q-82 -81 -82 -197t82 -198t198 -82q82 0 150 44t102 116l219 -446q-201 -172 -471 -172q-305 0 -521 216t-216 521t216 521q215 216 505 216t497 -180l-257 -494q32 64 -15 121
q-84 96 -205 96zM1000 780q-1 -3 -3 -6z" />
    <glyph glyph-name="Dcaron" unicode="&#x10e;" horiz-adv-x="1333" 
d="M563 428h33q121 0 205 85t84 204t-84 204t-205 85h-164l131 -25v-553zM20 1434h576q297 0 507 -210t210 -507t-210 -507t-507 -210h-461v1319q0 47 -34 81t-81 34zM596 1858l473 309l156 -240l-629 -411l-629 411l156 240z" />
    <glyph glyph-name="Dcroat" unicode="&#x110;" horiz-adv-x="1386" 
d="M616 426h33q119 0 204 85t85 205t-84 205t-205 85h-162l129 -25v-115h162v-301h-162v-139zM74 1434h575q297 0 507 -210t210 -507t-210 -508t-507 -211h-461v567h-168v301h168v453q0 47 -33 81q-34 34 -81 34z" />
    <glyph glyph-name="dcroat" unicode="&#x111;" horiz-adv-x="1333" 
d="M563 428h33q121 0 205 85t84 204t-84 204t-205 85h-164l131 -25v-553zM20 1434h576q297 0 507 -210t210 -507t-210 -507t-507 -210h-461v1319q0 47 -34 81t-81 34zM33 1853h1126v-317h-1126v317z" />
    <glyph glyph-name="Emacron" unicode="&#x112;" horiz-adv-x="1155" 
d="M1135 399v-399h-1000v1319q0 47 -34 81t-81 34h1086v-400h-672l129 -26v-105h457v-399h-586l129 -27v-78h572zM39 1853h1126v-317h-1126v317z" />
    <glyph glyph-name="emacron" unicode="&#x113;" horiz-adv-x="1155" 
d="M1135 399v-399h-1000v1319q0 47 -34 81t-81 34h1086v-400h-672l129 -26v-105h457v-399h-586l129 -27v-78h572zM39 1853h1126v-317h-1126v317z" />
    <glyph glyph-name="Edotaccent" unicode="&#x116;" horiz-adv-x="1155" 
d="M1135 399v-399h-1000v1319q0 47 -34 81t-81 34h1086v-400h-672l129 -26v-105h457v-399h-586l129 -27v-78h572zM424 1894h358v-358h-358v358z" />
    <glyph glyph-name="edotaccent" unicode="&#x117;" horiz-adv-x="1155" 
d="M1135 399v-399h-1000v1319q0 47 -34 81t-81 34h1086v-400h-672l129 -26v-105h457v-399h-586l129 -27v-78h572zM424 1894h358v-358h-358v358z" />
    <glyph glyph-name="Eogonek" unicode="&#x118;" horiz-adv-x="1155" 
d="M862 -471q-272 0 -272 211q0 70 51 134t104 95l52 31h-662v1319q0 47 -34 81t-81 34h1086v-400h-672l129 -26v-105h457v-399h-586l129 -27v-78h572v-399h-185q-6 -4 -18 -10q-89 -44 -132 -123q-43 -78 3 -120q23 -22 59 -21q75 0 113 49l160 -35q-12 -98 -82 -154
t-191 -57z" />
    <glyph glyph-name="eogonek" unicode="&#x119;" horiz-adv-x="1155" 
d="M862 -471q-272 0 -272 211q0 70 51 134t104 95l52 31h-662v1319q0 47 -34 81t-81 34h1086v-400h-672l129 -26v-105h457v-399h-586l129 -27v-78h572v-399h-185q-6 -4 -18 -10q-89 -44 -132 -123q-43 -78 3 -120q23 -22 59 -21q75 0 113 49l160 -35q-12 -98 -82 -154
t-191 -57z" />
    <glyph glyph-name="Ecaron" unicode="&#x11a;" horiz-adv-x="1155" 
d="M1135 399v-399h-1000v1319q0 47 -34 81t-81 34h1086v-400h-672l129 -26v-105h457v-399h-586l129 -27v-78h572zM602 1858l473 309l156 -240l-629 -411l-629 411l156 240z" />
    <glyph glyph-name="ecaron" unicode="&#x11b;" horiz-adv-x="1155" 
d="M1135 399v-399h-1000v1319q0 47 -34 81t-81 34h1086v-400h-672l129 -26v-105h457v-399h-586l129 -27v-78h572zM602 1858l473 309l156 -240l-629 -411l-629 411l156 240z" />
    <glyph glyph-name="Gbreve" unicode="&#x11e;" horiz-adv-x="1304" 
d="M842 580q0 46 -34 80t-81 34h543v-692h-520q-299 2 -509 215t-210 513t213 512q214 212 500 212t489 -174l-254 -487q33 63 -14 120q-84 97 -206 97t-204 -82t-82 -198t82 -198t199 -81q33 0 63 6l25 -127v250zM768 1556q-116 0 -224 30t-211 92t-169 137l-25 30l156 240
q22 -28 78 -73q110 -91 250 -135t302 5q161 49 296 178l20 25l156 -240q-21 -31 -102 -100q-129 -108 -303 -158q-108 -31 -224 -31z" />
    <glyph glyph-name="gbreve" unicode="&#x11f;" horiz-adv-x="1304" 
d="M842 580q0 46 -34 80t-81 34h543v-692h-520q-299 2 -509 215t-210 513t213 512q214 212 500 212t489 -174l-254 -487q33 63 -14 120q-84 97 -206 97t-204 -82t-82 -198t82 -198t199 -81q33 0 63 6l25 -127v250zM768 1556q-116 0 -224 30t-211 92t-169 137l-25 30l156 240
q22 -28 78 -73q110 -91 250 -135t302 5q161 49 296 178l20 25l156 -240q-21 -31 -102 -100q-129 -108 -303 -158q-108 -31 -224 -31z" />
    <glyph glyph-name="Gdotaccent" unicode="&#x120;" horiz-adv-x="1304" 
d="M1270 694v-692h-520q-299 2 -509 215t-210 513t213 512q214 212 500 212t489 -174l-254 -487q33 63 -14 120q-84 97 -206 97t-204 -82t-82 -198t82 -198t199 -81q33 0 63 6l25 -127v250q0 46 -34 80t-81 34h543zM948 1556h-358v359h358v-359z" />
    <glyph glyph-name="gdotaccent" unicode="&#x121;" horiz-adv-x="1304" 
d="M1270 694v-692h-520q-299 2 -509 215t-210 513t213 512q214 212 500 212t489 -174l-254 -487q33 63 -14 120q-84 97 -206 97t-204 -82t-82 -198t82 -198t199 -81q33 0 63 6l25 -127v250q0 46 -34 80t-81 34h543zM948 1556h-358v359h358v-359z" />
    <glyph glyph-name="Gcommaaccent" unicode="&#x122;" horiz-adv-x="1302" 
d="M539 -61h413l-84 -408h-299l60 293q12 51 -16 83t-74 32zM1270 694v-692h-520q-299 2 -509 215t-210 513t213 512q214 212 500 212t489 -174l-254 -487q33 63 -14 120q-84 97 -206 97t-204 -82t-82 -198t82 -198t199 -81q33 0 63 6l25 -127v250q0 46 -34 80t-81 34h543z
" />
    <glyph glyph-name="gcommaaccent" unicode="&#x123;" horiz-adv-x="1302" 
d="M539 -61h413l-84 -408h-299l60 293q12 51 -16 83t-74 32zM1270 694v-692h-520q-299 2 -509 215t-210 513t213 512q214 212 500 212t489 -174l-254 -487q33 63 -14 120q-84 97 -206 97t-204 -82t-82 -198t82 -198t199 -81q33 0 63 6l25 -127v250q0 46 -34 80t-81 34h543z
" />
    <glyph glyph-name="Hbar" unicode="&#x126;" horiz-adv-x="1556" 
d="M956 913h-356v-110h356v110zM1536 913h-152v-913h-428v403h-487l131 -26v-377h-428v913h-152v301h152v105q0 47 -34 81t-81 34h543v-220h356v105q0 47 -33 81q-34 34 -81 34h542v-220h152v-301z" />
    <glyph glyph-name="hbar" unicode="&#x127;" horiz-adv-x="1556" 
d="M956 913h-356v-110h356v110zM1536 913h-152v-913h-428v403h-487l131 -26v-377h-428v913h-152v301h152v105q0 47 -34 81t-81 34h543v-220h356v105q0 47 -33 81q-34 34 -81 34h542v-220h152v-301z" />
    <glyph glyph-name="Itilde" unicode="&#x128;" horiz-adv-x="583" 
d="M135 0v1319q0 47 -34 81t-81 34h543v-1434h-428zM-61 1708q152 236 405 104q197 -100 303 -47q8 4 12 7l78 -93l-8 -24q-22 -51 -102 -99q-92 -54 -300 30q-119 48 -173 54t-115 -28z" />
    <glyph glyph-name="itilde" unicode="&#x129;" horiz-adv-x="583" 
d="M135 0v1319q0 47 -34 81t-81 34h543v-1434h-428zM-61 1708q152 236 405 104q197 -100 303 -47q8 4 12 7l78 -93l-8 -24q-22 -51 -102 -99q-92 -54 -300 30q-119 48 -173 54t-115 -28z" />
    <glyph glyph-name="Imacron" unicode="&#x12a;" horiz-adv-x="583" 
d="M135 0v1319q0 47 -34 81t-81 34h543v-1434h-428zM-215 1853h1126v-317h-1126v317z" />
    <glyph glyph-name="imacron" unicode="&#x12b;" horiz-adv-x="583" 
d="M135 0v1319q0 47 -34 81t-81 34h543v-1434h-428zM-215 1853h1126v-317h-1126v317z" />
    <glyph glyph-name="Iogonek" unicode="&#x12e;" horiz-adv-x="583" 
d="M348 -471q-272 0 -272 211q0 70 52 134t103 95l52 31h-148v1319q0 47 -34 81t-81 34h543v-1434h-127q-6 -4 -18 -10q-89 -44 -132 -123q-43 -78 3 -120q23 -22 59 -21q75 0 113 49l160 -35q-12 -98 -82 -156q-72 -55 -191 -55z" />
    <glyph glyph-name="iogonek" unicode="&#x12f;" horiz-adv-x="583" 
d="M348 -471q-272 0 -272 211q0 70 52 134t103 95l52 31h-148v1319q0 47 -34 81t-81 34h543v-1434h-127q-6 -4 -18 -10q-89 -44 -132 -123q-43 -78 3 -120q23 -22 59 -21q75 0 113 49l160 -35q-12 -98 -82 -156q-72 -55 -191 -55z" />
    <glyph glyph-name="Idotaccent" unicode="&#x130;" horiz-adv-x="583" 
d="M135 0v1319q0 47 -34 81t-81 34h543v-1434h-428zM170 1894h358v-358h-358v358z" />
    <glyph glyph-name="dotlessi" unicode="&#x131;" horiz-adv-x="583" 
d="M135 0v1319q0 47 -34 81t-81 34h543v-1434h-428z" />
    <glyph glyph-name="Kcommaaccent" unicode="&#x136;" horiz-adv-x="1298" 
d="M449 -61h413l-84 -408h-299l60 293q12 51 -16 83t-74 32zM1257 307v-307h-399v307q0 76 -53 129t-129 53h-242l129 -26v-463h-428v1319q0 47 -34 81t-81 34h543v-545h78l162 444q10 41 -11 71q-22 30 -67 30h553l-238 -643l-122 45q90 -49 114 -70q104 -82 164 -202
t61 -257z" />
    <glyph glyph-name="kcommaaccent" unicode="&#x137;" horiz-adv-x="1298" 
d="M449 -61h413l-84 -408h-299l60 293q12 51 -16 83t-74 32zM1257 307v-307h-399v307q0 76 -53 129t-129 53h-242l129 -26v-463h-428v1319q0 47 -34 81t-81 34h543v-545h78l162 444q10 41 -11 71q-22 30 -67 30h553l-238 -643l-122 45q90 -49 114 -70q104 -82 164 -202
t61 -257z" />
    <glyph glyph-name="Lacute" unicode="&#x139;" horiz-adv-x="980" 
d="M961 399v-399h-826v1319q0 47 -34 81t-81 34h543v-1008l-129 -27h527zM209 1536l84 408h299l-84 -408h-299z" />
    <glyph glyph-name="lacute" unicode="&#x13a;" horiz-adv-x="980" 
d="M961 399v-399h-826v1319q0 47 -34 81t-81 34h543v-1008l-129 -27h527zM209 1536l84 408h299l-84 -408h-299z" />
    <glyph glyph-name="Lcommaaccent" unicode="&#x13b;" horiz-adv-x="980" 
d="M264 -61h414l-84 -408h-299l59 293q12 51 -15 83q-28 32 -75 32zM961 399v-399h-826v1319q0 47 -34 81t-81 34h543v-1008l-129 -27h527z" />
    <glyph glyph-name="lcommaaccent" unicode="&#x13c;" horiz-adv-x="980" 
d="M264 -61h414l-84 -408h-299l59 293q12 51 -15 83q-28 32 -75 32zM961 399v-399h-826v1319q0 47 -34 81t-81 34h543v-1008l-129 -27h527z" />
    <glyph glyph-name="lcaron" unicode="&#x13e;" horiz-adv-x="980" 
d="M961 399v-399h-826v1319q0 47 -34 81t-81 34h543v-1008l-129 -27h527z" />
    <glyph glyph-name="Ldot" unicode="&#x13f;" horiz-adv-x="980" 
d="M643 1024h318v-317h-318v317zM961 399v-399h-826v1319q0 47 -34 81t-81 34h543v-1008l-129 -27h527z" />
    <glyph glyph-name="ldot" unicode="&#x140;" horiz-adv-x="980" 
d="M643 1024h318v-317h-318v317zM961 399v-399h-826v1319q0 47 -34 81t-81 34h543v-1008l-129 -27h527z" />
    <glyph glyph-name="Lslash" unicode="&#x141;" horiz-adv-x="989" 
d="M969 428v-428h-826v428l-123 -80v340l123 80v551q0 47 -33 81q-34 34 -81 34h542v-385l123 79v-342l-123 -79v-252l-129 -27h527z" />
    <glyph glyph-name="lslash" unicode="&#x142;" horiz-adv-x="989" 
d="M969 428v-428h-826v428l-123 -80v340l123 80v551q0 47 -33 81q-34 34 -81 34h542v-385l123 79v-342l-123 -79v-252l-129 -27h527z" />
    <glyph glyph-name="Nacute" unicode="&#x143;" horiz-adv-x="1425" 
d="M1405 0h-428l-473 803l59 -148v-655h-428v1319q0 47 -34 81t-81 34h543l471 -803l-57 147v541q0 47 -34 81t-81 34h543v-1434zM635 1536l84 408h299l-84 -408h-299z" />
    <glyph glyph-name="nacute" unicode="&#x144;" horiz-adv-x="1425" 
d="M1405 0h-428l-473 803l59 -148v-655h-428v1319q0 47 -34 81t-81 34h543l471 -803l-57 147v541q0 47 -34 81t-81 34h543v-1434zM635 1536l84 408h299l-84 -408h-299z" />
    <glyph glyph-name="Ncommaaccent" unicode="&#x145;" horiz-adv-x="1425" 
d="M453 -61h413l-84 -408h-299l60 293q12 51 -16 83t-74 32zM1405 0h-428l-473 803l59 -148v-655h-428v1319q0 47 -34 81t-81 34h543l471 -803l-57 147v541q0 47 -34 81t-81 34h543v-1434z" />
    <glyph glyph-name="ncommaaccent" unicode="&#x146;" horiz-adv-x="1425" 
d="M453 -61h413l-84 -408h-299l60 293q12 51 -16 83t-74 32zM1405 0h-428l-473 803l59 -148v-655h-428v1319q0 47 -34 81t-81 34h543l471 -803l-57 147v541q0 47 -34 81t-81 34h543v-1434z" />
    <glyph glyph-name="Ncaron" unicode="&#x147;" horiz-adv-x="1425" 
d="M1405 0h-428l-473 803l59 -148v-655h-428v1319q0 47 -34 81t-81 34h543l471 -803l-57 147v541q0 47 -34 81t-81 34h543v-1434zM774 1858l473 309l156 -240l-629 -411l-629 411l156 240z" />
    <glyph glyph-name="ncaron" unicode="&#x148;" horiz-adv-x="1425" 
d="M1405 0h-428l-473 803l59 -148v-655h-428v1319q0 47 -34 81t-81 34h543l471 -803l-57 147v541q0 47 -34 81t-81 34h543v-1434zM774 1858l473 309l156 -240l-629 -411l-629 411l156 240z" />
    <glyph glyph-name="Eng" unicode="&#x14a;" horiz-adv-x="1425" 
d="M1405 1434v-1434q0 -116 -30 -224t-91 -211t-137 -169l-31 -25l-239 156q25 20 71 76q47 57 77 109t54 131q25 79 25 157h-303l-213 655l-25 158v-813h-428v1319q0 47 -34 81t-81 34h709l223 -637l25 -158v680q0 47 -34 81t-81 34h543z" />
    <glyph glyph-name="eng" unicode="&#x14b;" horiz-adv-x="1425" 
d="M1405 1434v-1434q0 -116 -30 -224t-91 -211t-137 -169l-31 -25l-239 156q25 20 71 76q47 57 77 109t54 131q25 79 25 157h-303l-213 655l-25 158v-813h-428v1319q0 47 -34 81t-81 34h709l223 -637l25 -158v680q0 47 -34 81t-81 34h543z" />
    <glyph glyph-name="Omacron" unicode="&#x14c;" horiz-adv-x="1513" 
d="M757 438q115 0 197 82t82 198t-82 198t-197 81q-116 0 -198 -82q-82 -81 -82 -197t82 -198t198 -82zM757 -20q-304 0 -520 216t-217 521q0 305 216 521t522 216q305 0 520 -216t215 -521t-216 -521t-520 -216zM195 1874h1126v-318h-1126v318z" />
    <glyph glyph-name="omacron" unicode="&#x14d;" horiz-adv-x="1513" 
d="M757 438q115 0 197 82t82 198t-82 198t-197 81q-116 0 -198 -82q-82 -81 -82 -197t82 -198t198 -82zM757 -20q-304 0 -520 216t-217 521q0 305 216 521t522 216q305 0 520 -216t215 -521t-216 -521t-520 -216zM195 1874h1126v-318h-1126v318z" />
    <glyph glyph-name="Ohungarumlaut" unicode="&#x150;" horiz-adv-x="1513" 
d="M757 438q115 0 197 82t82 198t-82 198t-197 81q-116 0 -198 -82q-82 -81 -82 -197t82 -198t198 -82zM757 -20q-304 0 -520 216t-217 521q0 305 216 521t522 216q305 0 520 -216t215 -521t-216 -521t-520 -216zM823 1556l111 543h299l-111 -543h-299zM434 1556l111 543
h299l-111 -543h-299z" />
    <glyph glyph-name="ohungarumlaut" unicode="&#x151;" horiz-adv-x="1513" 
d="M757 438q115 0 197 82t82 198t-82 198t-197 81q-116 0 -198 -82q-82 -81 -82 -197t82 -198t198 -82zM757 -20q-304 0 -520 216t-217 521q0 305 216 521t522 216q305 0 520 -216t215 -521t-216 -521t-520 -216zM823 1556l111 543h299l-111 -543h-299zM434 1556l111 543
h299l-111 -543h-299z" />
    <glyph glyph-name="OE" unicode="&#x152;" horiz-adv-x="2146" 
d="M798 389q136 0 232 96q96 97 96 233t-96 232t-232 96t-232 -96t-97 -232q0 -136 96 -233q97 -96 233 -96zM2126 399v-399h-1000v49q-152 -76 -327 -76q-309 0 -528 218q-218 219 -218 527t218 526t528 218q176 0 327 -76v48h971v-400h-672l129 -24v-107h457v-399h-586
l129 -27v-78h572z" />
    <glyph glyph-name="oe" unicode="&#x153;" horiz-adv-x="2146" 
d="M798 389q136 0 232 96q96 97 96 233t-96 232t-232 96t-232 -96t-97 -232q0 -136 96 -233q97 -96 233 -96zM2126 399v-399h-1000v49q-152 -76 -327 -76q-309 0 -528 218q-218 219 -218 527t218 526t528 218q176 0 327 -76v48h971v-400h-672l129 -24v-107h457v-399h-586
l129 -27v-78h572z" />
    <glyph glyph-name="Racute" unicode="&#x154;" horiz-adv-x="1277" 
d="M563 791h123q49 1 85 35t36 85t-36 86t-85 35h-123v-241zM1257 209v-209h-399v209q0 76 -53 128t-129 52h-242l129 -24v-365h-428v1317q0 47 -34 81t-81 34h666q215 0 368 -153t152 -368q0 -162 -90 -293l-88 -96l88 66q141 -164 141 -379zM492 1536l83 408h299l-83 -408
h-299z" />
    <glyph glyph-name="racute" unicode="&#x155;" horiz-adv-x="1277" 
d="M563 791h123q49 1 85 35t36 85t-36 86t-85 35h-123v-241zM1257 209v-209h-399v209q0 76 -53 128t-129 52h-242l129 -24v-365h-428v1317q0 47 -34 81t-81 34h666q215 0 368 -153t152 -368q0 -162 -90 -293l-88 -96l88 66q141 -164 141 -379zM492 1536l83 408h299l-83 -408
h-299z" />
    <glyph glyph-name="Rcommaaccent" unicode="&#x156;" horiz-adv-x="1277" 
d="M453 -61h413l-84 -408h-299l60 293q12 51 -16 83t-74 32zM563 791h123q49 1 85 35t36 85t-36 86t-85 35h-123v-241zM1257 209v-209h-399v209q0 76 -53 128t-129 52h-242l129 -24v-365h-428v1317q0 47 -34 81t-81 34h666q215 0 368 -153t152 -368q0 -162 -90 -293l-88 -96
l88 66q141 -164 141 -379z" />
    <glyph glyph-name="rcommaaccent" unicode="&#x157;" horiz-adv-x="1277" 
d="M453 -61h413l-84 -408h-299l60 293q12 51 -16 83t-74 32zM563 791h123q49 1 85 35t36 85t-36 86t-85 35h-123v-241zM1257 209v-209h-399v209q0 76 -53 128t-129 52h-242l129 -24v-365h-428v1317q0 47 -34 81t-81 34h666q215 0 368 -153t152 -368q0 -162 -90 -293l-88 -96
l88 66q141 -164 141 -379z" />
    <glyph glyph-name="Rcaron" unicode="&#x158;" horiz-adv-x="1277" 
d="M563 791h123q49 1 85 35t36 85t-36 86t-85 35h-123v-241zM1257 209v-209h-399v209q0 76 -53 128t-129 52h-242l129 -24v-365h-428v1317q0 47 -34 81t-81 34h666q215 0 368 -153t152 -368q0 -162 -90 -293l-88 -96l88 66q141 -164 141 -379zM631 1858l473 309l156 -240
l-629 -411l-629 411l156 240z" />
    <glyph glyph-name="rcaron" unicode="&#x159;" horiz-adv-x="1277" 
d="M563 791h123q49 1 85 35t36 85t-36 86t-85 35h-123v-241zM1257 209v-209h-399v209q0 76 -53 128t-129 52h-242l129 -24v-365h-428v1317q0 47 -34 81t-81 34h666q215 0 368 -153t152 -368q0 -162 -90 -293l-88 -96l88 66q141 -164 141 -379zM631 1858l473 309l156 -240
l-629 -411l-629 411l156 240z" />
    <glyph glyph-name="Sacute" unicode="&#x15a;" horiz-adv-x="1175" 
d="M549 1008q0 -68 151 -107t285 -126q66 -42 110 -124t44 -194q-1 -186 -149 -339t-357 -153q-131 0 -241 25t-203 76t-136 112l-16 25l178 344q69 -101 189 -153t212 -40t93 74q0 41 -43 71q-42 30 -106 46t-139 51t-138 80t-107 136q-43 91 -43 218q0 188 136 313
t399 125q117 0 219 -42t147 -83l45 -43l-180 -344q-20 72 -107 109t-165 21t-78 -78zM508 1571l84 407h299l-84 -407h-299z" />
    <glyph glyph-name="sacute" unicode="&#x15b;" horiz-adv-x="1175" 
d="M549 1008q0 -68 151 -107t285 -126q66 -42 110 -124t44 -194q-1 -186 -149 -339t-357 -153q-131 0 -241 25t-203 76t-136 112l-16 25l178 344q69 -101 189 -153t212 -40t93 74q0 41 -43 71q-42 30 -106 46t-139 51t-138 80t-107 136q-43 91 -43 218q0 188 136 313
t399 125q117 0 219 -42t147 -83l45 -43l-180 -344q-20 72 -107 109t-165 21t-78 -78zM508 1571l84 407h299l-84 -407h-299z" />
    <glyph glyph-name="Scedilla" unicode="&#x15e;" horiz-adv-x="1175" 
d="M549 1008q0 -68 151 -107t285 -126q66 -42 110 -124t44 -194q0 -175 -133 -323t-328 -167l-41 -55q25 0 67 -16t68 -36t50 -66q22 -44 22 -91t-9 -83q-45 -179 -264 -179q-121 1 -197 61t-77 191h186q-1 -23 15 -39t39 -16h63q25 0 39 17t14 38q0 67 -48 103t-95 40
l-47 2l47 133q-202 20 -314 91t-147 120l-12 21l178 344q69 -101 189 -153t212 -40t93 74q0 41 -43 71q-42 30 -106 46t-139 51t-138 80t-107 136q-43 91 -43 218q0 188 136 313t399 125q117 0 219 -42t147 -83l45 -43l-180 -344q-20 72 -107 109t-165 21t-78 -78z" />
    <glyph glyph-name="scedilla" unicode="&#x15f;" horiz-adv-x="1175" 
d="M549 1008q0 -68 151 -107t285 -126q66 -42 110 -124t44 -194q0 -175 -133 -323t-328 -167l-41 -55q25 0 67 -16t68 -36t50 -66q22 -44 22 -91t-9 -83q-45 -179 -264 -179q-121 1 -197 61t-77 191h186q-1 -23 15 -39t39 -16h63q25 0 39 17t14 38q0 67 -48 103t-95 40
l-47 2l47 133q-202 20 -314 91t-147 120l-12 21l178 344q69 -101 189 -153t212 -40t93 74q0 41 -43 71q-42 30 -106 46t-139 51t-138 80t-107 136q-43 91 -43 218q0 188 136 313t399 125q117 0 219 -42t147 -83l45 -43l-180 -344q-20 72 -107 109t-165 21t-78 -78z" />
    <glyph glyph-name="Scaron" unicode="&#x160;" horiz-adv-x="1175" 
d="M549 1008q0 -68 151 -107t285 -126q66 -42 110 -124t44 -194q-1 -186 -149 -339t-357 -153q-131 0 -241 25t-203 76t-136 112l-16 25l178 344q69 -101 189 -153t212 -40t93 74q0 41 -43 71q-42 30 -106 46t-139 51t-138 80t-107 136q-43 91 -43 218q0 188 136 313
t399 125q117 0 219 -42t147 -83l45 -43l-180 -344q-20 72 -107 109t-165 21t-78 -78zM647 1892l473 310l156 -240l-629 -412l-629 412l156 240z" />
    <glyph glyph-name="scaron" unicode="&#x161;" horiz-adv-x="1175" 
d="M549 1008q0 -68 151 -107t285 -126q66 -42 110 -124t44 -194q-1 -186 -149 -339t-357 -153q-131 0 -241 25t-203 76t-136 112l-16 25l178 344q69 -101 189 -153t212 -40t93 74q0 41 -43 71q-42 30 -106 46t-139 51t-138 80t-107 136q-43 91 -43 218q0 188 136 313
t399 125q117 0 219 -42t147 -83l45 -43l-180 -344q-20 72 -107 109t-165 21t-78 -78zM647 1892l473 310l156 -240l-629 -412l-629 412l156 240z" />
    <glyph glyph-name="Tcedilla" unicode="&#x162;" horiz-adv-x="1255" 
d="M1235 1034h-465l129 -26v-1008h-121l-51 -70q27 0 68 -16t67 -36t50 -65q22 -43 22 -91t-9 -84t-34 -79q-25 -44 -84 -72t-163 -28t-180 61q-77 61 -77 191h186q-1 -23 15 -39t39 -16h63q25 0 39 17t14 38q0 68 -48 104t-95 38l-47 4l51 143h-133v1034h-336v285
q0 47 -34 81t-81 34h1215v-400z" />
    <glyph glyph-name="tcedilla" unicode="&#x163;" horiz-adv-x="1255" 
d="M1235 1034h-465l129 -26v-1008h-121l-51 -70q27 0 68 -16t67 -36t50 -65q22 -43 22 -91t-9 -84t-34 -79q-25 -44 -84 -72t-163 -28t-180 61q-77 61 -77 191h186q-1 -23 15 -39t39 -16h63q25 0 39 17t14 38q0 68 -48 104t-95 38l-47 4l51 143h-133v1034h-336v285
q0 47 -34 81t-81 34h1215v-400z" />
    <glyph glyph-name="Tcaron" unicode="&#x164;" horiz-adv-x="1255" 
d="M1235 1434v-400h-465l129 -26v-1008h-428v1034h-336v285q0 47 -34 81t-81 34h1215zM684 1858l473 309l156 -240l-629 -411l-629 411l156 240z" />
    <glyph glyph-name="Tbar" unicode="&#x166;" horiz-adv-x="1255" 
d="M1235 1434v-400h-465l129 -26v-1008h-428v1034h-336v285q0 47 -34 81t-81 34h1215zM121 1853h1126v-317h-1126v317z" />
    <glyph glyph-name="tbar" unicode="&#x167;" horiz-adv-x="1255" 
d="M1235 1434v-400h-465l129 -26v-1008h-428v1034h-336v285q0 47 -34 81t-81 34h1215zM121 1853h1126v-317h-1126v317z" />
    <glyph glyph-name="Utilde" unicode="&#x168;" horiz-adv-x="1409" 
d="M1378 1434v-836q0 -256 -181 -437t-436 -181t-437 181t-183 437v723q0 45 -32 79q-33 34 -78 34h538v-801q-1 -80 55 -136q56 -57 136 -57t136 56t54 137v688q0 47 -32 80q-33 33 -80 33h540zM352 1708q152 236 406 104q197 -100 303 -47q8 4 12 7l78 -93l-8 -24
q-22 -51 -103 -99q-91 -54 -299 30q-119 48 -174 54t-114 -28z" />
    <glyph glyph-name="utilde" unicode="&#x169;" horiz-adv-x="1409" 
d="M1378 1434v-836q0 -256 -181 -437t-436 -181t-437 181t-183 437v723q0 45 -32 79q-33 34 -78 34h538v-801q-1 -80 55 -136q56 -57 136 -57t136 56t54 137v688q0 47 -32 80q-33 33 -80 33h540zM352 1708q152 236 406 104q197 -100 303 -47q8 4 12 7l78 -93l-8 -24
q-22 -51 -103 -99q-91 -54 -299 30q-119 48 -174 54t-114 -28z" />
    <glyph glyph-name="Umacron" unicode="&#x16a;" horiz-adv-x="1409" 
d="M1378 1434v-836q0 -256 -181 -437t-436 -181t-437 181t-183 437v723q0 45 -32 79q-33 34 -78 34h538v-801q-1 -80 55 -136q56 -57 136 -57t136 56t54 137v688q0 47 -32 80q-33 33 -80 33h540zM199 1853h1126v-317h-1126v317z" />
    <glyph glyph-name="umacron" unicode="&#x16b;" horiz-adv-x="1409" 
d="M1378 1434v-836q0 -256 -181 -437t-436 -181t-437 181t-183 437v723q0 45 -32 79q-33 34 -78 34h538v-801q-1 -80 55 -136q56 -57 136 -57t136 56t54 137v688q0 47 -32 80q-33 33 -80 33h540zM199 1853h1126v-317h-1126v317z" />
    <glyph glyph-name="Uring" unicode="&#x16e;" horiz-adv-x="1409" 
d="M1378 1434v-836q0 -256 -181 -437t-436 -181t-437 181t-183 437v723q0 45 -32 79q-33 34 -78 34h538v-801q-1 -80 55 -136q56 -57 136 -57t136 56t54 137v688q0 47 -32 80q-33 33 -80 33h540zM763 2009q-46 0 -79 -32t-33 -79q0 -48 33 -80t78 -32t79 33q33 33 33 79
t-32 78q-33 33 -79 33zM762 1536q-150 0 -255 106t-106 256t105 255t256 105t255 -104q105 -106 105 -256t-105 -256t-255 -106z" />
    <glyph glyph-name="uring" unicode="&#x16f;" horiz-adv-x="1409" 
d="M1378 1434v-836q0 -256 -181 -437t-436 -181t-437 181t-183 437v723q0 45 -32 79q-33 34 -78 34h538v-801q-1 -80 55 -136q56 -57 136 -57t136 56t54 137v688q0 47 -32 80q-33 33 -80 33h540zM763 2009q-46 0 -79 -32t-33 -79q0 -48 33 -80t78 -32t79 33q33 33 33 79
t-32 78q-33 33 -79 33zM762 1536q-150 0 -255 106t-106 256t105 255t256 105t255 -104q105 -106 105 -256t-105 -256t-255 -106z" />
    <glyph glyph-name="Uhungarumlaut" unicode="&#x170;" horiz-adv-x="1409" 
d="M1378 1434v-836q0 -256 -181 -437t-436 -181t-437 181t-183 437v723q0 45 -32 79q-33 34 -78 34h538v-801q-1 -80 55 -136q56 -57 136 -57t136 56t54 137v688q0 47 -32 80q-33 33 -80 33h540zM827 1536l111 543h299l-111 -543h-299zM438 1536l111 543h299l-111 -543h-299
z" />
    <glyph glyph-name="uhungarumlaut" unicode="&#x171;" horiz-adv-x="1409" 
d="M1378 1434v-836q0 -256 -181 -437t-436 -181t-437 181t-183 437v723q0 45 -32 79q-33 34 -78 34h538v-801q-1 -80 55 -136q56 -57 136 -57t136 56t54 137v688q0 47 -32 80q-33 33 -80 33h540zM827 1536l111 543h299l-111 -543h-299zM438 1536l111 543h299l-111 -543h-299
z" />
    <glyph glyph-name="Uogonek" unicode="&#x172;" horiz-adv-x="1409" 
d="M901 -471q-272 0 -272 211q0 133 174 242l-41 -2q-256 0 -438 181t-183 437v723q0 45 -32 79q-33 34 -78 34h538v-801q-1 -80 55 -136q56 -57 136 -57t136 56t54 137v688q0 47 -32 80q-33 33 -80 33h540v-836q0 -211 -129 -378t-329 -220h69q-6 -4 -18 -10
q-89 -44 -132 -123q-43 -78 3 -120q23 -22 59 -21q75 0 113 49l160 -35q-12 -98 -82 -154t-191 -57z" />
    <glyph glyph-name="uogonek" unicode="&#x173;" horiz-adv-x="1409" 
d="M901 -471q-272 0 -272 211q0 133 174 242l-41 -2q-256 0 -438 181t-183 437v723q0 45 -32 79q-33 34 -78 34h538v-801q-1 -80 55 -136q56 -57 136 -57t136 56t54 137v688q0 47 -32 80q-33 33 -80 33h540v-836q0 -211 -129 -378t-329 -220h69q-6 -4 -18 -10
q-89 -44 -132 -123q-43 -78 3 -120q23 -22 59 -21q75 0 113 49l160 -35q-12 -98 -82 -154t-191 -57z" />
    <glyph glyph-name="Wcircumflex" unicode="&#x174;" horiz-adv-x="1921" 
d="M29 1434h542l115 -576l-14 -131l186 592q14 51 -9 83q-24 32 -71 32h373l221 -707l-14 131l92 461q10 51 -17 83q-28 32 -75 32h543l-285 -1434h-373l-221 840l-223 -840h-371l-264 1329q-14 45 -52 75t-83 30zM1651 1755l-156 -239l-473 309l-473 -309l-156 239l629 412
z" />
    <glyph glyph-name="wcircumflex" unicode="&#x175;" horiz-adv-x="1921" 
d="M29 1434h542l115 -576l-14 -131l186 592q14 51 -9 83q-24 32 -71 32h373l221 -707l-14 131l92 461q10 51 -17 83q-28 32 -75 32h543l-285 -1434h-373l-221 840l-223 -840h-371l-264 1329q-14 45 -52 75t-83 30zM1651 1755l-156 -239l-473 309l-473 -309l-156 239l629 412
z" />
    <glyph glyph-name="Ycircumflex" unicode="&#x176;" horiz-adv-x="1320" 
d="M20 1434h553l168 -463v-131l101 487q6 45 -21 76t-71 31h550l-292 -1432h-437l107 526h-209l-291 793q-18 49 -63 81t-95 32zM1350 1755l-156 -239l-473 309l-473 -309l-156 239l629 412z" />
    <glyph glyph-name="ycircumflex" unicode="&#x177;" horiz-adv-x="1320" 
d="M20 1434h553l168 -463v-131l101 487q6 45 -21 76t-71 31h550l-292 -1432h-437l107 526h-209l-291 793q-18 49 -63 81t-95 32zM1350 1755l-156 -239l-473 309l-473 -309l-156 239l629 412z" />
    <glyph glyph-name="Ydieresis" unicode="&#x178;" horiz-adv-x="1320" 
d="M20 1434h553l168 -463v-131l101 487q6 45 -21 76t-71 31h550l-292 -1432h-437l107 526h-209l-291 793q-18 49 -63 81t-95 32zM813 1894h358v-358h-358v358zM270 1894h359v-358h-359v358z" />
    <glyph glyph-name="Zacute" unicode="&#x179;" horiz-adv-x="1165" 
d="M1112 420v-420h-1081l461 1014h-359v307q0 47 -34 80t-79 33h1125l-451 -988l-129 -26h547zM475 1536l84 408h299l-84 -408h-299z" />
    <glyph glyph-name="zacute" unicode="&#x17a;" horiz-adv-x="1165" 
d="M1112 420v-420h-1081l461 1014h-359v307q0 47 -34 80t-79 33h1125l-451 -988l-129 -26h547zM475 1536l84 408h299l-84 -408h-299z" />
    <glyph glyph-name="Zdotaccent" unicode="&#x17b;" horiz-adv-x="1165" 
d="M1112 420v-420h-1081l461 1014h-359v307q0 47 -34 80t-79 33h1125l-451 -988l-129 -26h547zM436 1894h359v-358h-359v358z" />
    <glyph glyph-name="zdotaccent" unicode="&#x17c;" horiz-adv-x="1165" 
d="M1112 420v-420h-1081l461 1014h-359v307q0 47 -34 80t-79 33h1125l-451 -988l-129 -26h547zM436 1894h359v-358h-359v358z" />
    <glyph glyph-name="Zcaron" unicode="&#x17d;" horiz-adv-x="1165" 
d="M1112 420v-420h-1081l461 1014h-359v307q0 47 -34 80t-79 33h1125l-451 -988l-129 -26h547zM614 1858l473 309l156 -240l-629 -411l-628 411l155 240z" />
    <glyph glyph-name="zcaron" unicode="&#x17e;" horiz-adv-x="1165" 
d="M1112 420v-420h-1081l461 1014h-359v307q0 47 -34 80t-79 33h1125l-451 -988l-129 -26h547zM614 1858l473 309l156 -240l-629 -411l-628 411l155 240z" />
    <glyph glyph-name="Bhook" unicode="&#x181;" horiz-adv-x="1560" 
d="M827 395h248q33 0 55 23q22 24 23 56q0 32 -23 54t-55 23h-248v-156zM827 911h150q31 0 53 23q22 24 23 56q0 32 -23 54t-53 23h-150v-156zM1540 474q0 -196 -138 -335t-333 -139h-641v1133q-90 0 -137 -36t-49 -71l-4 -35h-207q-29 147 29 269q26 51 68 87q42 35 120 61
t180 26h541q184 0 314 -130t130 -315q0 -76 -31 -162l-73 -112l92 94q139 -139 139 -335z" />
    <glyph glyph-name="Oopen" unicode="&#x186;" horiz-adv-x="1310" 
d="M542 1462q294 0 512 -218t218 -526t-218 -528t-528 -219q-270 0 -477 174l197 400q43 -72 119 -114t161 -42q135 0 233 96q97 97 97 233t-97 232t-233 97q-88 0 -164 -43t-118 -117l-205 395q209 180 503 180z" />
    <glyph glyph-name="Chook" unicode="&#x187;" horiz-adv-x="1449" 
d="M788 -51q-317 0 -542 225q-226 224 -226 542t226 544t542 225q113 0 218 -31q23 92 74 151q52 58 110 76q120 37 203 23l37 -8v-207h-16q-9 0 -33 -9q-88 -33 -91 -182l-211 -405q-45 76 -123 120t-168 44q-139 1 -239 -99t-100 -240t100 -240t239 -99q90 0 167 43
t122 117l203 -410q-213 -180 -492 -180z" />
    <glyph glyph-name="chook" unicode="&#x188;" horiz-adv-x="1449" 
d="M788 -51q-317 0 -542 225q-226 224 -226 542t226 544t542 225q113 0 218 -31q23 92 74 151q52 58 110 76q120 37 203 23l37 -8v-207h-16q-9 0 -33 -9q-88 -33 -91 -182l-211 -405q-45 76 -123 120t-168 44q-139 1 -239 -99t-100 -240t100 -240t239 -99q90 0 167 43
t122 117l203 -410q-213 -180 -492 -180z" />
    <glyph glyph-name="Dafrican" unicode="&#x189;" horiz-adv-x="1386" 
d="M616 426h33q119 0 204 85t85 205t-84 205t-205 85h-162l129 -25v-115h162v-301h-162v-139zM74 1434h575q297 0 507 -210t210 -507t-210 -508t-507 -211h-461v567h-168v301h168v453q0 47 -33 81q-34 34 -81 34z" />
    <glyph glyph-name="Dhook" unicode="&#x18a;" horiz-adv-x="1626" 
d="M856 426h33q119 0 204 85t85 205t-85 205t-204 85h-162l129 -25v-555zM428 1434h461q297 0 507 -210t210 -507t-210 -508t-507 -211h-461v1135q-90 0 -137 -36t-49 -71l-4 -35h-207q-29 147 29 269q26 51 68 87q42 35 120 61t180 26z" />
    <glyph glyph-name="Ereversed" unicode="&#x18e;" horiz-adv-x="1126" 
d="M1106 1434v-1434h-1000v399h572v78l129 27h-586v399h457v105l129 26h-672v285q0 47 -34 81t-81 34h1086z" />
    <glyph glyph-name="Fhook" unicode="&#x191;" horiz-adv-x="1036" 
d="M590 903h282v-399h-413l131 -27v-387q0 -102 -32 -180t-82 -120q-110 -92 -239 -102q-130 -10 -184 1l-33 4v207h16q9 0 33 8q83 28 91 170v1241q0 47 -33 81t-80 34h969v-400h-557l131 -26v-105z" />
    <glyph glyph-name="Ghook" unicode="&#x193;" horiz-adv-x="1402" 
d="M1282 0h-530q-307 2 -520 219q-212 217 -212 520t218 521t522 217q96 0 198 -27q23 92 75 152q51 60 109 77q123 38 206 21l34 -6v-207h-15q-9 0 -34 -9q-51 -18 -71 -72q-21 -54 -21 -110l-230 -445q32 66 -26 124q-96 90 -228 90q-131 0 -227 -96q-96 -97 -96 -231
t95 -230t231 -96q47 0 86 12l24 -125v295q0 45 -32 77q-33 32 -78 31h522v-702zM1011 851q-1 -2 -1 -3z" />
    <glyph glyph-name="Iotaafrican" unicode="&#x196;" horiz-adv-x="724" 
d="M563 1434v-1325q0 -89 36 -137t71 -50l35 -4v-207q-189 -31 -345 30q-66 26 -112 68q-46 41 -80 119q-33 78 -33 181v1210q0 47 -34 81t-81 34h543z" />
    <glyph glyph-name="Istroke" unicode="&#x197;" horiz-adv-x="950" 
d="M930 965v-299h-371l129 -25v-641h-428v666h-240v299h240v354q0 47 -34 81t-81 34h543v-469h242z" />
    <glyph glyph-name="Khook" unicode="&#x198;" horiz-adv-x="1458" 
d="M1316 1276q-26 0 -50 -10t-51 -43q-28 -33 -46 -86h-2l-127 -346l-122 45q90 -49 114 -70q104 -82 164 -202t61 -257v-307h-399v307q0 76 -53 129t-129 53h-242l129 -26v-463h-428v1319q0 47 -34 81t-81 34h543v-545h78l143 389q48 133 134 201q86 67 172 69
q178 3 299 -59l49 -27l-72 -194q-24 8 -50 8z" />
    <glyph glyph-name="khook" unicode="&#x199;" horiz-adv-x="1458" 
d="M1316 1276q-26 0 -50 -10t-51 -43q-28 -33 -46 -86h-2l-127 -346l-122 45q90 -49 114 -70q104 -82 164 -202t61 -257v-307h-399v307q0 76 -53 129t-129 53h-242l129 -26v-463h-428v1319q0 47 -34 81t-81 34h543v-545h78l143 389q48 133 134 201q86 67 172 69
q178 3 299 -59l49 -27l-72 -194q-24 8 -50 8z" />
    <glyph glyph-name="Nhookleft" unicode="&#x19d;" horiz-adv-x="1452" 
d="M1432 1434v-1434h-605l-213 655l-24 158v-813q0 -102 -32 -180t-82 -120q-110 -92 -242 -102t-181 1l-33 4v207h16q9 0 34 9t43 26t33 59t16 96v1319q0 47 -34 81t-81 34h709l223 -637l25 -158v680q0 47 -34 81t-81 34h543z" />
    <glyph glyph-name="Ohorn" unicode="&#x1a0;" horiz-adv-x="1695" 
d="M757 997q-116 0 -198 -81.5t-82 -197.5t82 -198t198 -82t197.5 82t81.5 198t-81.5 197.5t-197.5 81.5zM1493 717q0 -305 -216 -521t-520 -216t-520.5 216t-216.5 521t216.5 521t508.5 216t502 -188q76 27 145.5 73.5t102.5 81.5l31 33l149 -229q-103 -123 -250 -197
q68 -147 68 -311z" />
    <glyph glyph-name="ohorn" unicode="&#x1a1;" horiz-adv-x="1695" 
d="M757 438q115 0 197 82t82 198t-82 198t-197 81q-116 0 -198 -82q-82 -81 -82 -197t82 -198t198 -82zM1493 717q0 -305 -216 -521t-520 -216t-520 216t-217 521q0 305 216 521t509 216q292 0 502 -188q76 28 146 74t102 81l31 33l149 -229q-10 -12 -28 -34t-83 -74
t-139 -89q68 -147 68 -311z" />
    <glyph glyph-name="Phook" unicode="&#x1a4;" horiz-adv-x="1490" 
d="M856 889h141q31 -1 53 21t22 52t-22 52t-53 20h-141v-145zM428 1434h569q195 0 334 -138t139 -334t-139 -334t-334 -139h-270l129 -26v-463h-428v1133q-90 0 -137 -36t-49 -71l-4 -35h-207q-29 147 29 269q26 51 68 87q42 35 120 61t180 26z" />
    <glyph glyph-name="phook" unicode="&#x1a5;" horiz-adv-x="1490" 
d="M856 889h141q31 -1 53 21t22 52t-22 52t-53 20h-141v-145zM428 1434h569q195 0 334 -138t139 -334t-139 -334t-334 -139h-270l129 -26v-463h-428v1133q-90 0 -137 -36t-49 -71l-4 -35h-207q-29 147 29 269q26 51 68 87q42 35 120 61t180 26z" />
    <glyph glyph-name="Thook" unicode="&#x1ac;" horiz-adv-x="1445" 
d="M1425 1434v-400h-464l129 -24v-1010h-428v1034h-234q-90 0 -137 -36t-49 -70l-4 -35h-207q-30 179 29 327q26 62 68 107t120 76t180 31h997z" />
    <glyph glyph-name="thook" unicode="&#x1ad;" horiz-adv-x="1445" 
d="M1425 1434v-400h-464l129 -24v-1010h-428v1034h-234q-90 0 -137 -36t-49 -70l-4 -35h-207q-30 179 29 327q26 62 68 107t120 76t180 31h997z" />
    <glyph glyph-name="Tretroflexhook" unicode="&#x1ae;" horiz-adv-x="1255" 
d="M899 92q0 -90 36 -137t71 -49l34 -4v-207q-188 -31 -344 30q-66 25 -112 67t-80 120q-33 78 -33 180v942h-336v285q0 47 -34 81t-81 34h1215v-400h-465l129 -24v-918z" />
    <glyph glyph-name="Uhorn" unicode="&#x1af;" horiz-adv-x="1738" 
d="M1382 600q0 -256 -181 -438t-437 -182t-437.5 182t-181.5 438v721q0 47 -32.5 80t-79.5 33h534v-834q0 -82 58.5 -140.5t139.5 -58.5t138.5 58.5t57.5 140.5v834h421v-78q110 68 152 117l18 20l154 -236q-12 -16 -35.5 -42.5t-107.5 -89t-181 -99.5v-426z" />
    <glyph glyph-name="uhorn" unicode="&#x1b0;" horiz-adv-x="1738" 
d="M1382 600q0 -256 -181 -438t-437 -182t-437 182t-182 438v721q0 47 -32 80q-33 33 -80 33h534v-834q1 -82 59 -140t139 -58t138 58t58 140v834h421v-78q110 68 152 117l18 20l154 -236q-12 -16 -36 -43t-108 -89t-180 -99v-426z" />
    <glyph glyph-name="Yhook" unicode="&#x1b3;" horiz-adv-x="1478" 
d="M20 1434h551l170 -465v-131l80 395q29 137 105 216t164 93q182 29 311 -18l57 -21l-41 -203q-18 6 -47 1q-28 -5 -50 -18q-55 -33 -79 -140l-233 -1143h-439l109 526h-211l-291 793q-18 49 -62 82t-94 33z" />
    <glyph glyph-name="yhook" unicode="&#x1b4;" horiz-adv-x="1478" 
d="M20 1434h551l170 -465v-131l80 395q29 137 105 216t164 93q182 29 311 -18l57 -21l-41 -203q-18 6 -47 1q-28 -5 -50 -18q-55 -33 -79 -140l-233 -1143h-439l109 526h-211l-291 793q-18 49 -62 82t-94 33z" />
    <glyph glyph-name="Acaron" unicode="&#x1cd;" 
d="M702 588l-69 407l-72 -407h141zM199 1434h751l293 -1434h-438l-33 188h-416l129 -24l-26 -164h-439l271 1319q10 47 -18 81t-74 34zM633 1858l473 309l156 -240l-629 -411l-629 411l156 240z" />
    <glyph glyph-name="acaron" unicode="&#x1ce;" 
d="M702 588l-69 407l-72 -407h141zM199 1434h751l293 -1434h-438l-33 188h-416l129 -24l-26 -164h-439l271 1319q10 47 -18 81t-74 34zM633 1858l473 309l156 -240l-629 -411l-629 411l156 240z" />
    <glyph glyph-name="Icaron" unicode="&#x1cf;" horiz-adv-x="583" 
d="M135 0v1319q0 47 -34 81t-81 34h543v-1434h-428zM348 1858l473 309l156 -240l-629 -411l-629 411l156 240z" />
    <glyph glyph-name="icaron" unicode="&#x1d0;" horiz-adv-x="583" 
d="M135 0v1319q0 47 -34 81t-81 34h543v-1434h-428zM348 1858l473 309l156 -240l-629 -411l-629 411l156 240z" />
    <glyph glyph-name="Ocaron" unicode="&#x1d1;" horiz-adv-x="1513" 
d="M757 438q115 0 197 82t82 198t-82 198t-197 81q-116 0 -198 -82q-82 -81 -82 -197t82 -198t198 -82zM757 -20q-304 0 -520 216t-217 521q0 305 216 521t522 216q305 0 520 -216t215 -521t-216 -521t-520 -216zM758 1878l473 309l155 -239l-628 -412l-629 412l156 239z
" />
    <glyph glyph-name="ocaron" unicode="&#x1d2;" horiz-adv-x="1513" 
d="M757 438q115 0 197 82t82 198t-82 198t-197 81q-116 0 -198 -82q-82 -81 -82 -197t82 -198t198 -82zM757 -20q-304 0 -520 216t-217 521q0 305 216 521t522 216q305 0 520 -216t215 -521t-216 -521t-520 -216zM758 1878l473 309l155 -239l-628 -412l-629 412l156 239z
" />
    <glyph glyph-name="Ucaron" unicode="&#x1d3;" horiz-adv-x="1409" 
d="M1378 1434v-836q0 -256 -181 -437t-436 -181t-437 181t-183 437v723q0 45 -32 79q-33 34 -78 34h538v-801q-1 -80 55 -136q56 -57 136 -57t136 56t54 137v688q0 47 -32 80q-33 33 -80 33h540zM762 1858l473 309l156 -240l-629 -411l-629 411l156 240z" />
    <glyph glyph-name="ucaron" unicode="&#x1d4;" horiz-adv-x="1409" 
d="M1378 1434v-836q0 -256 -181 -437t-436 -181t-437 181t-183 437v723q0 45 -32 79q-33 34 -78 34h538v-801q-1 -80 55 -136q56 -57 136 -57t136 56t54 137v688q0 47 -32 80q-33 33 -80 33h540zM762 1858l473 309l156 -240l-629 -411l-629 411l156 240z" />
    <glyph glyph-name="eturned" unicode="&#x1dd;" horiz-adv-x="1126" 
d="M1106 1434v-1434h-1000v399h572v78l129 27h-586v399h457v105l129 26h-672v285q0 47 -34 81t-81 34h1086z" />
    <glyph glyph-name="Oslashacute" unicode="&#x1fe;" horiz-adv-x="1574" 
d="M1116 723q0 137 -98 235l-111 -542q92 37 151 121q58 84 58 186zM459 706q0 -119 96 -219l113 543q-94 -37 -152 -121t-57 -203zM1532 723q0 -299 -208 -516t-505 -230l-16 -77h-367l31 149q-193 91 -309 273t-115 401q0 299 207 515t506 228l16 78h367l-33 -149
q194 -89 310 -271t116 -401zM823 1645l84 407h299l-84 -407h-299z" />
    <glyph glyph-name="oslashacute" unicode="&#x1ff;" horiz-adv-x="1574" 
d="M1116 723q0 137 -98 235l-111 -542q92 37 151 121q58 84 58 186zM459 706q0 -119 96 -219l113 543q-94 -37 -152 -121t-57 -203zM1532 723q0 -299 -208 -516t-505 -230l-16 -77h-367l31 149q-193 91 -309 273t-115 401q0 299 207 515t506 228l16 78h367l-33 -149
q194 -89 310 -271t116 -401zM823 1645l84 407h299l-84 -407h-299z" />
    <glyph glyph-name="Scommaaccent" unicode="&#x218;" horiz-adv-x="1175" 
d="M334 -102h414l-84 -408h-299l59 293q12 51 -15 83q-28 32 -75 32zM549 1008q0 -68 151 -107t285 -126q66 -42 110 -124t44 -194q-1 -186 -149 -339t-357 -153q-131 0 -241 25t-203 76t-136 112l-16 25l178 344q69 -101 189 -153t212 -40t93 74q0 41 -43 71
q-42 30 -106 46t-139 51t-138 80t-107 136q-43 91 -43 218q0 188 136 313t399 125q117 0 219 -42t147 -83l45 -43l-180 -344q-20 72 -107 109t-165 21t-78 -78z" />
    <glyph glyph-name="scommaaccent" unicode="&#x219;" horiz-adv-x="1175" 
d="M334 -102h414l-84 -408h-299l59 293q12 51 -15 83q-28 32 -75 32zM549 1008q0 -68 151 -107t285 -126q66 -42 110 -124t44 -194q-1 -186 -149 -339t-357 -153q-131 0 -241 25t-203 76t-136 112l-16 25l178 344q69 -101 189 -153t212 -40t93 74q0 41 -43 71
q-42 30 -106 46t-139 51t-138 80t-107 136q-43 91 -43 218q0 188 136 313t399 125q117 0 219 -42t147 -83l45 -43l-180 -344q-20 72 -107 109t-165 21t-78 -78z" />
    <glyph glyph-name="uni021A" unicode="&#x21a;" horiz-adv-x="1255" 
d="M457 -61h413l-84 -408h-299l60 293q12 51 -16 83t-74 32zM1235 1434v-400h-465l129 -26v-1008h-428v1034h-336v285q0 47 -34 81t-81 34h1215z" />
    <glyph glyph-name="uni021B" unicode="&#x21b;" horiz-adv-x="1255" 
d="M457 -61h413l-84 -408h-299l60 293q12 51 -16 83t-74 32zM1235 1434v-400h-465l129 -26v-1008h-428v1034h-336v285q0 47 -34 81t-81 34h1215z" />
    <glyph glyph-name="uni0243" unicode="&#x243;" horiz-adv-x="1296" 
d="M563 395h248q33 0 55 23q22 24 23 56q0 32 -23 54t-55 23h-248v-156zM563 911h150q31 0 53 23q22 24 22 56t-22 54t-53 23h-150v-156zM1276 474q0 -196 -138 -335t-333 -139h-641v324h-144v299h144v811h541q184 0 314 -130t130 -315q0 -76 -31 -162l-74 -112l93 94
q139 -139 139 -335z" />
    <glyph glyph-name="uni0244" unicode="&#x244;" horiz-adv-x="1583" 
d="M989 657h-522l127 -24v-35q0 -82 58 -139t140 -57t139 56q58 58 58 140v59zM1550 952v-295h-268l127 -24v-35q0 -256 -181 -437t-436 -181t-437 181q-181 181 -181 437v59h-141v295h141v369q0 47 -34 80t-81 33h535v-482h395v369q0 47 -34 80t-81 33h535v-482h141z" />
    <glyph glyph-name="uni024C" unicode="&#x24c;" horiz-adv-x="1306" 
d="M592 791h123q49 1 85 35t36 85t-36 86t-85 35h-123v-241zM1286 209v-209h-399v209q0 76 -53 128t-129 52h-242l129 -24v-365h-428v389h-144v399h144v529q0 47 -34 81t-81 34h666q215 0 367 -153t153 -368q0 -162 -90 -293l-88 -96l88 66q141 -164 141 -379z" />
    <glyph glyph-name="bhook" unicode="&#x253;" horiz-adv-x="1560" 
d="M827 395h248q33 0 55 23q22 24 23 56q0 32 -23 54t-55 23h-248v-156zM827 911h150q31 0 53 23q22 24 23 56q0 32 -23 54t-53 23h-150v-156zM1540 474q0 -196 -138 -335t-333 -139h-641v1133q-90 0 -137 -36t-49 -71l-4 -35h-207q-29 147 29 269q26 51 68 87q42 35 120 61
t180 26h541q184 0 314 -130t130 -315q0 -76 -31 -162l-73 -112l92 94q139 -139 139 -335z" />
    <glyph glyph-name="oopen" unicode="&#x254;" horiz-adv-x="1310" 
d="M542 1462q294 0 512 -218t218 -526t-218 -528t-528 -219q-270 0 -477 174l197 400q43 -72 119 -114t161 -42q135 0 233 96q97 97 97 233t-97 232t-233 97q-88 0 -164 -43t-118 -117l-205 395q209 180 503 180z" />
    <glyph glyph-name="dhook" unicode="&#x257;" horiz-adv-x="1626" 
d="M856 426h33q119 0 204 85t85 205t-85 205t-204 85h-162l129 -25v-555zM428 1434h461q297 0 507 -210t210 -507t-210 -508t-507 -211h-461v1135q-90 0 -137 -36t-49 -71l-4 -35h-207q-29 147 29 269q26 51 68 87q42 35 120 61t180 26z" />
    <glyph glyph-name="ghook" unicode="&#x260;" horiz-adv-x="1402" 
d="M1282 0h-530q-307 2 -520 219q-212 217 -212 520t218 521t522 217q96 0 198 -27q23 92 75 152q51 60 109 77q123 38 206 21l34 -6v-207h-15q-9 0 -34 -9q-51 -18 -71 -72q-21 -54 -21 -110l-230 -445q32 66 -26 124q-96 90 -228 90q-131 0 -227 -96q-96 -97 -96 -231
t95 -230t231 -96q47 0 86 12l24 -125v295q0 45 -32 77q-33 32 -78 31h522v-702zM1011 851q-1 -2 -1 -3z" />
    <glyph glyph-name="istroke" unicode="&#x268;" horiz-adv-x="950" 
d="M930 965v-299h-371l129 -25v-641h-428v666h-240v299h240v354q0 47 -34 81t-81 34h543v-469h242z" />
    <glyph glyph-name="iotalatin" unicode="&#x269;" horiz-adv-x="724" 
d="M563 1434v-1325q0 -89 36 -137t71 -50l35 -4v-207q-189 -31 -345 30q-66 26 -112 68q-46 41 -80 119q-33 78 -33 181v1210q0 47 -34 81t-81 34h543z" />
    <glyph glyph-name="nhookleft" unicode="&#x272;" horiz-adv-x="1452" 
d="M1432 1434v-1434h-605l-213 655l-24 158v-813q0 -102 -32 -180t-82 -120q-110 -92 -242 -102t-181 1l-33 4v207h16q9 0 34 9t43 26t33 59t16 96v1319q0 47 -34 81t-81 34h709l223 -637l25 -158v680q0 47 -34 81t-81 34h543z" />
    <glyph glyph-name="tretroflexhook" unicode="&#x288;" horiz-adv-x="1255" 
d="M899 92q0 -90 36 -137t71 -49l34 -4v-207q-188 -31 -344 30q-66 25 -112 67t-80 120q-33 78 -33 180v942h-336v285q0 47 -34 81t-81 34h1215v-400h-465l129 -24v-918z" />
    <glyph glyph-name="ubar" unicode="&#x289;" horiz-adv-x="1583" 
d="M989 657h-522l127 -24v-35q0 -82 58 -139t140 -57t139 56q58 58 58 140v59zM1550 952v-295h-268l127 -24v-35q0 -256 -181 -437t-436 -181t-437 181q-181 181 -181 437v59h-141v295h141v369q0 47 -34 80t-81 33h535v-482h395v369q0 47 -34 80t-81 33h535v-482h141z" />
    <glyph glyph-name="circumflex" unicode="&#x2c6;" horiz-adv-x="1298" 
d="M1278 1755l-156 -239l-473 309l-473 -309l-156 239l629 412z" />
    <glyph glyph-name="caron" unicode="&#x2c7;" horiz-adv-x="1298" 
d="M649 1858l473 309l156 -240l-629 -411l-629 411l156 240z" />
    <glyph glyph-name="breve" unicode="&#x2d8;" horiz-adv-x="1298" 
d="M649 1536q-117 0 -225.5 30.5t-176 69.5t-135.5 96.5t-92 92.5l156 239l21 -24q129 -130 297 -180q78 -24 156 -24q78 2 156 26q129 40 212.5 108.5t103.5 93.5l156 -239l-25 -31q-65 -76 -168.5 -137.5t-211 -91t-224.5 -29.5z" />
    <glyph glyph-name="dotaccent" unicode="&#x2d9;" horiz-adv-x="399" 
d="M20 1894h359v-358h-359v358z" />
    <glyph glyph-name="ring" unicode="&#x2da;" horiz-adv-x="761" 
d="M382 2009q-46 0 -79 -31.5t-33 -79t33 -80t78 -32.5t79 32.5t34 78.5t-33 79t-79 33zM380.5 1536q-149.5 0 -255 106.5t-105.5 256t105.5 255t255 105.5t255 -105.5t105.5 -255t-105.5 -256t-255 -106.5z" />
    <glyph glyph-name="ogonek" unicode="&#x2db;" horiz-adv-x="585" 
d="M293 -471q-272 0 -273 211q0 70 52 134t104 95l51 31h154q-7 -4 -19 -10t-40 -26q-110 -76 -111 -165q1 -31 23 -53t59 -20q72 0 113 49l159 -35q-12 -98 -82 -154t-190 -57z" />
    <glyph glyph-name="tilde" unicode="&#x2dc;" horiz-adv-x="839" 
d="M20 1708q152 236 406 104q197 -100 303 -47q8 4 12 7l78 -93l-8 -24q-23 -53 -102 -99q-93 -54 -300 30q-119 48 -174 54.5t-114 -28.5z" />
    <glyph glyph-name="hungarumlaut" unicode="&#x2dd;" horiz-adv-x="839" 
d="M410 1536l110 543h299l-110 -543h-299zM20 1536l111 543h299l-111 -543h-299z" />
    <glyph glyph-name="Bdotbelow" unicode="&#x1e04;" horiz-adv-x="1267" 
d="M461 -61h358v-359h-358v359zM535 395h247q33 0 56 23q22 24 22 56t-22 54t-56 23h-247v-156zM535 911h149q32 0 54 23q22 24 22 56t-23 54t-53 23h-149v-156zM1247 474q0 -196 -138 -335t-333 -139h-641v1319q0 47 -34 81t-81 34h656q184 0 314 -130t130 -315
q0 -76 -30 -162l-74 -112l92 94q139 -139 139 -335z" />
    <glyph glyph-name="bdotbelow" unicode="&#x1e05;" horiz-adv-x="1267" 
d="M461 -61h358v-359h-358v359zM535 395h247q33 0 56 23q22 24 22 56t-22 54t-56 23h-247v-156zM535 911h149q32 0 54 23q22 24 22 56t-23 54t-53 23h-149v-156zM1247 474q0 -196 -138 -335t-333 -139h-641v1319q0 47 -34 81t-81 34h656q184 0 314 -130t130 -315
q0 -76 -30 -162l-74 -112l92 94q139 -139 139 -335z" />
    <glyph glyph-name="Ddotbelow" unicode="&#x1e0c;" horiz-adv-x="1333" 
d="M399 -61h359v-359h-359v359zM563 428h33q121 0 205 85t84 204t-84 204t-205 85h-164l131 -25v-553zM20 1434h576q297 0 507 -210t210 -507t-210 -507t-507 -210h-461v1319q0 47 -34 81t-81 34z" />
    <glyph glyph-name="ddotbelow" unicode="&#x1e0d;" horiz-adv-x="1392" 
d="M1372 -475l-155 -240l-474 309l-473 -309l-155 240l628 412zM563 428h33q121 0 205 85t84 204t-84 204t-205 85h-164l131 -25v-553zM20 1434h576q297 0 507 -210t210 -507t-210 -507t-507 -210h-461v1319q0 47 -34 81t-81 34z" />
    <glyph glyph-name="Dlinebelow" unicode="&#x1e0e;" horiz-adv-x="1333" 
d="M135 -61h1127v-318h-1127v318zM563 428h33q121 0 205 85t84 204t-84 204t-205 85h-164l131 -25v-553zM20 1434h576q297 0 507 -210t210 -507t-210 -507t-507 -210h-461v1319q0 47 -34 81t-81 34z" />
    <glyph glyph-name="dlinebelow" unicode="&#x1e0f;" horiz-adv-x="1333" 
d="M135 -61h1127v-318h-1127v318zM563 428h33q121 0 205 85t84 204t-84 204t-205 85h-164l131 -25v-553zM20 1434h576q297 0 507 -210t210 -507t-210 -507t-507 -210h-461v1319q0 47 -34 81t-81 34z" />
    <glyph glyph-name="Dcircumflexbelow" unicode="&#x1e12;" horiz-adv-x="1392" 
d="M1372 -475l-155 -240l-474 309l-473 -309l-155 240l628 412zM563 428h33q121 0 205 85t84 204t-84 204t-205 85h-164l131 -25v-553zM20 1434h576q297 0 507 -210t210 -507t-210 -507t-507 -210h-461v1319q0 47 -34 81t-81 34z" />
    <glyph glyph-name="dcircumflexbelow" unicode="&#x1e13;" horiz-adv-x="1392" 
d="M1372 -475l-155 -240l-474 309l-473 -309l-155 240l628 412zM563 428h33q121 0 205 85t84 204t-84 204t-205 85h-164l131 -25v-553zM20 1434h576q297 0 507 -210t210 -507t-210 -507t-507 -210h-461v1319q0 47 -34 81t-81 34z" />
    <glyph glyph-name="Hdotbelow" unicode="&#x1e24;" horiz-adv-x="1368" 
d="M563 -61h359v-359h-359v359zM1348 1434v-1434h-428v403h-488l131 -26v-377h-428v1319q0 47 -34 81t-81 34h543v-631h357v516q0 47 -34 81t-81 34h543z" />
    <glyph glyph-name="hdotbelow" unicode="&#x1e25;" horiz-adv-x="1368" 
d="M563 -61h359v-359h-359v359zM1348 1434v-1434h-428v403h-488l131 -26v-377h-428v1319q0 47 -34 81t-81 34h543v-631h357v516q0 47 -34 81t-81 34h543z" />
    <glyph glyph-name="Ldotbelow" unicode="&#x1e36;" horiz-adv-x="980" 
d="M367 -61h358v-359h-358v359zM961 399v-399h-826v1319q0 47 -34 81t-81 34h543v-1008l-129 -27h527z" />
    <glyph glyph-name="ldotbelow" unicode="&#x1e37;" horiz-adv-x="980" 
d="M367 -61h358v-359h-358v359zM961 399v-399h-826v1319q0 47 -34 81t-81 34h543v-1008l-129 -27h527z" />
    <glyph glyph-name="Lcircumflexbelow" unicode="&#x1e3c;" horiz-adv-x="1298" 
d="M1278 -475l-156 -240l-473 309l-473 -309l-156 240l629 412zM1067 399v-399h-825v1319q0 47 -34 81t-81 34h543v-1008l-129 -27h526z" />
    <glyph glyph-name="lcircumflexbelow" unicode="&#x1e3d;" horiz-adv-x="1298" 
d="M1278 -475l-156 -240l-473 309l-473 -309l-156 240l629 412zM1067 399v-399h-825v1319q0 47 -34 81t-81 34h543v-1008l-129 -27h526z" />
    <glyph glyph-name="Macute" unicode="&#x1e3e;" horiz-adv-x="1626" 
d="M1606 1434v-1434h-428v633l8 155l-174 -788h-285l-174 788l8 -155v-633h-428v1319q0 47 -34 81t-81 34h621l229 -822l199 707q12 47 -12 81q-25 34 -70 34h621zM729 1536l84 408h299l-84 -408h-299z" />
    <glyph glyph-name="macute" unicode="&#x1e3f;" horiz-adv-x="1626" 
d="M1606 1434v-1434h-428v633l8 155l-174 -788h-285l-174 788l8 -155v-633h-428v1319q0 47 -34 81t-81 34h621l229 -822l199 707q12 47 -12 81q-25 34 -70 34h621zM729 1536l84 408h299l-84 -408h-299z" />
    <glyph glyph-name="Ndotaccent" unicode="&#x1e44;" horiz-adv-x="1425" 
d="M1405 0h-428l-473 803l59 -148v-655h-428v1319q0 47 -34 81t-81 34h543l471 -803l-57 147v541q0 47 -34 81t-81 34h543v-1434zM596 1894h358v-358h-358v358z" />
    <glyph glyph-name="ndotaccent" unicode="&#x1e45;" horiz-adv-x="1425" 
d="M1405 0h-428l-473 803l59 -148v-655h-428v1319q0 47 -34 81t-81 34h543l471 -803l-57 147v541q0 47 -34 81t-81 34h543v-1434zM596 1894h358v-358h-358v358z" />
    <glyph glyph-name="Ndotbelow" unicode="&#x1e46;" horiz-adv-x="1425" 
d="M612 -61h359v-359h-359v359zM1405 0h-428l-473 803l59 -148v-655h-428v1319q0 47 -34 81t-81 34h543l471 -803l-57 147v541q0 47 -34 81t-81 34h543v-1434z" />
    <glyph glyph-name="ndotbelow" unicode="&#x1e47;" horiz-adv-x="1425" 
d="M612 -61h359v-359h-359v359zM1405 0h-428l-473 803l59 -148v-655h-428v1319q0 47 -34 81t-81 34h543l471 -803l-57 147v541q0 47 -34 81t-81 34h543v-1434z" />
    <glyph glyph-name="Ncircumflexbelow" unicode="&#x1e4a;" horiz-adv-x="1435" 
d="M1415 -475l-155 -240l-474 309l-473 -309l-155 240l628 412zM1405 0h-428l-473 803l59 -148v-655h-428v1319q0 47 -34 81t-81 34h543l471 -803l-57 147v541q0 47 -34 81t-81 34h543v-1434z" />
    <glyph glyph-name="ncircumflexbelow" unicode="&#x1e4b;" horiz-adv-x="1435" 
d="M1415 -475l-155 -240l-474 309l-473 -309l-155 240l628 412zM1405 0h-428l-473 803l59 -148v-655h-428v1319q0 47 -34 81t-81 34h543l471 -803l-57 147v541q0 47 -34 81t-81 34h543v-1434z" />
    <glyph glyph-name="omacrongrave" unicode="&#x1e51;" horiz-adv-x="1513" 
d="M757 438q115 0 197 82t82 198t-82 198t-198 81q-116 0 -197 -82q-82 -81 -82 -197t82 -198t198 -82zM758 1454q305 0 520 -216t215 -521t-216 -521t-520 -216t-520 216t-217 521q0 305 216 521t522 216zM195 1556v318h342l-45 225h299l45 -225h485v-318h-1126z" />
    <glyph glyph-name="omacronacute" unicode="&#x1e53;" horiz-adv-x="1513" 
d="M757 438q115 0 197 82t82 198t-82 198t-198 81q-116 0 -197 -82q-82 -81 -82 -197t82 -198t198 -82zM758 1454q305 0 520 -216t215 -521t-216 -521t-520 -216t-520 216t-217 521q0 305 216 521t522 216zM195 1556v318h489l18 90h299l-18 -90h338v-318h-1126z" />
    <glyph glyph-name="Sdotbelow" unicode="&#x1e62;" horiz-adv-x="1175" 
d="M436 -102h359v-359h-359v359zM549 1008q0 -68 151 -107t285 -126q66 -42 110 -124t44 -194q-1 -186 -149 -339t-357 -153q-131 0 -241 25t-203 76t-136 112l-16 25l178 344q69 -101 189 -153t212 -40t93 74q0 41 -43 71q-42 30 -106 46t-139 51t-138 80t-107 136
q-43 91 -43 218q0 188 136 313t399 125q117 0 219 -42t147 -83l45 -43l-180 -344q-20 72 -107 109t-165 21t-78 -78z" />
    <glyph glyph-name="sdotbelow" unicode="&#x1e63;" horiz-adv-x="1175" 
d="M436 -102h359v-359h-359v359zM549 1008q0 -68 151 -107t285 -126q66 -42 110 -124t44 -194q-1 -186 -149 -339t-357 -153q-131 0 -241 25t-203 76t-136 112l-16 25l178 344q69 -101 189 -153t212 -40t93 74q0 41 -43 71q-42 30 -106 46t-139 51t-138 80t-107 136
q-43 91 -43 218q0 188 136 313t399 125q117 0 219 -42t147 -83l45 -43l-180 -344q-20 72 -107 109t-165 21t-78 -78z" />
    <glyph glyph-name="Tdotbelow" unicode="&#x1e6c;" horiz-adv-x="1255" 
d="M510 -61h358v-359h-358v359zM1235 1434v-400h-465l129 -26v-1008h-428v1034h-336v285q0 47 -34 81t-81 34h1215z" />
    <glyph glyph-name="tdotbelow" unicode="&#x1e6d;" horiz-adv-x="1255" 
d="M510 -61h358v-359h-358v359zM1235 1434v-400h-465l129 -26v-1008h-428v1034h-336v285q0 47 -34 81t-81 34h1215z" />
    <glyph glyph-name="Tcircumflexbelow" unicode="&#x1e70;" horiz-adv-x="1312" 
d="M1292 -475l-155 -240l-473 309l-474 -309l-155 240l629 412zM1235 1434v-400h-465l129 -26v-1008h-428v1034h-336v285q0 47 -34 81t-81 34h1215z" />
    <glyph glyph-name="tcircumflexbelow" unicode="&#x1e71;" horiz-adv-x="1312" 
d="M1292 -475l-155 -240l-473 309l-474 -309l-155 240l629 412zM1235 1434v-400h-465l129 -26v-1008h-428v1034h-336v285q0 47 -34 81t-81 34h1215z" />
    <glyph glyph-name="Wgrave" unicode="&#x1e80;" horiz-adv-x="1921" 
d="M29 1434h542l115 -576l-14 -131l186 592q14 51 -9 83q-24 32 -71 32h373l221 -707l-14 131l92 461q10 51 -17 83q-28 32 -75 32h543l-285 -1434h-373l-221 840l-223 -840h-371l-264 1329q-14 45 -52 75t-83 30zM756 2079h299l110 -543h-299z" />
    <glyph glyph-name="wgrave" unicode="&#x1e81;" horiz-adv-x="1921" 
d="M29 1434h542l115 -576l-14 -131l186 592q14 51 -9 83q-24 32 -71 32h373l221 -707l-14 131l92 461q10 51 -17 83q-28 32 -75 32h543l-285 -1434h-373l-221 840l-223 -840h-371l-264 1329q-14 45 -52 75t-83 30zM756 2079h299l110 -543h-299z" />
    <glyph glyph-name="Wacute" unicode="&#x1e82;" horiz-adv-x="1921" 
d="M29 1434h542l115 -576l-14 -131l186 592q14 51 -9 83q-24 32 -71 32h373l221 -707l-14 131l92 461q10 51 -17 83q-28 32 -75 32h543l-285 -1434h-373l-221 840l-223 -840h-371l-264 1329q-14 45 -52 75t-83 30zM883 1536l84 408h299l-84 -408h-299z" />
    <glyph glyph-name="wacute" unicode="&#x1e83;" horiz-adv-x="1921" 
d="M29 1434h542l115 -576l-14 -131l186 592q14 51 -9 83q-24 32 -71 32h373l221 -707l-14 131l92 461q10 51 -17 83q-28 32 -75 32h543l-285 -1434h-373l-221 840l-223 -840h-371l-264 1329q-14 45 -52 75t-83 30zM883 1536l84 408h299l-84 -408h-299z" />
    <glyph glyph-name="Wdieresis" unicode="&#x1e84;" horiz-adv-x="1921" 
d="M29 1434h542l115 -576l-14 -131l186 592q14 51 -9 83q-24 32 -71 32h373l221 -707l-14 131l92 461q10 51 -17 83q-28 32 -75 32h543l-285 -1434h-373l-221 840l-223 -840h-371l-264 1329q-14 45 -52 75t-83 30zM1114 1894h359v-358h-359v358zM571 1894h359v-358h-359v358
z" />
    <glyph glyph-name="wdieresis" unicode="&#x1e85;" horiz-adv-x="1921" 
d="M29 1434h542l115 -576l-14 -131l186 592q14 51 -9 83q-24 32 -71 32h373l221 -707l-14 131l92 461q10 51 -17 83q-28 32 -75 32h543l-285 -1434h-373l-221 840l-223 -840h-371l-264 1329q-14 45 -52 75t-83 30zM1114 1894h359v-358h-359v358zM571 1894h359v-358h-359v358
z" />
    <glyph glyph-name="Zdotbelow" unicode="&#x1e92;" horiz-adv-x="1165" 
d="M446 -61h359v-359h-359v359zM1112 420v-420h-1081l461 1014h-359v307q0 47 -34 80t-79 33h1125l-451 -988l-129 -26h547z" />
    <glyph glyph-name="zdotbelow" unicode="&#x1e93;" horiz-adv-x="1165" 
d="M446 -61h359v-359h-359v359zM1112 420v-420h-1081l461 1014h-359v307q0 47 -34 80t-79 33h1125l-451 -988l-129 -26h547z" />
    <glyph glyph-name="Adotbelow" unicode="&#x1ea0;" 
d="M457 -61h358v-359h-358v359zM702 588l-69 407l-72 -407h141zM199 1434h751l293 -1434h-438l-33 188h-416l129 -24l-26 -164h-439l271 1319q10 47 -18 81t-74 34z" />
    <glyph glyph-name="adotbelow" unicode="&#x1ea1;" 
d="M457 -61h358v-359h-358v359zM702 588l-69 407l-72 -407h141zM199 1434h751l293 -1434h-438l-33 188h-416l129 -24l-26 -164h-439l271 1319q10 47 -18 81t-74 34z" />
    <glyph glyph-name="Acircumflexdotbelow" unicode="&#x1eac;" horiz-adv-x="1306" 
d="M457 -61h358v-359h-358v359zM702 588l-69 407l-72 -407h141zM199 1434h751l293 -1434h-438l-33 188h-416l129 -24l-26 -164h-439l271 1319q10 47 -18 81t-74 34zM1286 1755l-156 -239l-473 309l-473 -309l-155 239l628 412z" />
    <glyph glyph-name="acircumflexdotbelow" unicode="&#x1ead;" horiz-adv-x="1306" 
d="M457 -61h358v-359h-358v359zM702 588l-69 407l-72 -407h141zM199 1434h751l293 -1434h-438l-33 188h-416l129 -24l-26 -164h-439l271 1319q10 47 -18 81t-74 34zM1286 1755l-156 -239l-473 309l-473 -309l-155 239l628 412z" />
    <glyph glyph-name="Abrevedotbelow" unicode="&#x1eb6;" horiz-adv-x="1298" 
d="M473 -61h358v-359h-358v359zM719 588l-70 407l-71 -407h141zM215 1434h752l293 -1434h-439l-33 188h-415l129 -24l-27 -164h-438l270 1319q10 47 -17 81q-28 34 -75 34zM648 1536q-116 0 -224 31q-175 50 -302 157q-77 65 -102 101l156 239l21 -24q131 -131 297 -179
q78 -24 156 -24t156 25q79 25 144 62t115 83q49 47 57 57l156 -239l-25 -31q-25 -29 -77 -72q-230 -186 -528 -186z" />
    <glyph glyph-name="abrevedotbelow" unicode="&#x1eb7;" horiz-adv-x="1298" 
d="M473 -61h358v-359h-358v359zM719 588l-70 407l-71 -407h141zM215 1434h752l293 -1434h-439l-33 188h-415l129 -24l-27 -164h-438l270 1319q10 47 -17 81q-28 34 -75 34zM648 1536q-116 0 -224 31q-175 50 -302 157q-77 65 -102 101l156 239l21 -24q131 -131 297 -179
q78 -24 156 -24t156 25q79 25 144 62t115 83q49 47 57 57l156 -239l-25 -31q-25 -29 -77 -72q-230 -186 -528 -186z" />
    <glyph glyph-name="Edotbelow" unicode="&#x1eb8;" horiz-adv-x="1155" 
d="M459 -61h358v-359h-358v359zM1135 399v-399h-1000v1319q0 47 -34 81t-81 34h1086v-400h-672l129 -26v-105h457v-399h-586l129 -27v-78h572z" />
    <glyph glyph-name="edotbelow" unicode="&#x1eb9;" horiz-adv-x="1155" 
d="M459 -61h358v-359h-358v359zM1135 399v-399h-1000v1319q0 47 -34 81t-81 34h1086v-400h-672l129 -26v-105h457v-399h-586l129 -27v-78h572z" />
    <glyph glyph-name="Etilde" unicode="&#x1ebc;" horiz-adv-x="1155" 
d="M1135 399v-399h-1000v1319q0 47 -34 81t-81 34h1086v-400h-672l129 -26v-105h457v-399h-586l129 -27v-78h572zM193 1708q152 236 405 104q197 -100 303 -47q8 4 12 7l78 -93l-8 -24q-22 -51 -102 -99q-92 -54 -300 30q-119 48 -173 54t-115 -28z" />
    <glyph glyph-name="etilde" unicode="&#x1ebd;" horiz-adv-x="1155" 
d="M1135 399v-399h-1000v1319q0 47 -34 81t-81 34h1086v-400h-672l129 -26v-105h457v-399h-586l129 -27v-78h572zM193 1708q152 236 405 104q197 -100 303 -47q8 4 12 7l78 -93l-8 -24q-22 -51 -102 -99q-92 -54 -300 30q-119 48 -173 54t-115 -28z" />
    <glyph glyph-name="Ecircumflexdotbelow" unicode="&#x1ec6;" horiz-adv-x="1298" 
d="M494 -61h358v-359h-358v359zM1190 399v-399h-1000v1319q0 47 -33 81q-34 34 -81 34h1085v-400h-672l129 -26v-105h457v-399h-586l129 -27v-78h572zM1278 1755l-156 -239l-473 309l-473 -309l-156 239l629 412z" />
    <glyph glyph-name="ecircumflexdotbelow" unicode="&#x1ec7;" horiz-adv-x="1298" 
d="M494 -61h358v-359h-358v359zM1190 399v-399h-1000v1319q0 47 -33 81q-34 34 -81 34h1085v-400h-672l129 -26v-105h457v-399h-586l129 -27v-78h572zM1278 1755l-156 -239l-473 309l-473 -309l-156 239l629 412z" />
    <glyph glyph-name="Idotbelow" unicode="&#x1eca;" horiz-adv-x="583" 
d="M170 -61h358v-359h-358v359zM135 0v1319q0 47 -34 81t-81 34h543v-1434h-428z" />
    <glyph glyph-name="idotbelow" unicode="&#x1ecb;" horiz-adv-x="583" 
d="M170 -61h358v-359h-358v359zM135 0v1319q0 47 -34 81t-81 34h543v-1434h-428z" />
    <glyph glyph-name="Odotbelow" unicode="&#x1ecc;" horiz-adv-x="1513" 
d="M621 -102h358v-359h-358v359zM757 438q115 0 197 82t82 198t-82 198t-197 81q-116 0 -198 -82q-82 -81 -82 -197t82 -198t198 -82zM757 -20q-304 0 -520 216t-217 521q0 305 216 521t522 216q305 0 520 -216t215 -521t-216 -521t-520 -216z" />
    <glyph glyph-name="odotbelow" unicode="&#x1ecd;" horiz-adv-x="1513" 
d="M621 -102h358v-359h-358v359zM757 438q115 0 197 82t82 198t-82 198t-197 81q-116 0 -198 -82q-82 -81 -82 -197t82 -198t198 -82zM757 -20q-304 0 -520 216t-217 521q0 305 216 521t522 216q305 0 520 -216t215 -521t-216 -521t-520 -216z" />
    <glyph glyph-name="Ocircumflexdotbelow" unicode="&#x1ed8;" horiz-adv-x="1513" 
d="M621 -102h358v-359h-358v359zM757 438q115 0 197 82t82 198t-82 198t-197 81q-116 0 -198 -82q-82 -81 -82 -197t82 -198t198 -82zM757 -20q-304 0 -520 216t-217 521q0 305 216 521t522 216q305 0 520 -216t215 -521t-216 -521t-520 -216zM1397 1812l-156 -239l-473 309
l-473 -309l-156 239l629 412z" />
    <glyph glyph-name="ocircumflexdotbelow" unicode="&#x1ed9;" horiz-adv-x="1513" 
d="M621 -102h358v-359h-358v359zM757 438q115 0 197 82t82 198t-82 198t-197 81q-116 0 -198 -82q-82 -81 -82 -197t82 -198t198 -82zM757 -20q-304 0 -520 216t-217 521q0 305 216 521t522 216q305 0 520 -216t215 -521t-216 -521t-520 -216zM1397 1812l-156 -239l-473 309
l-473 -309l-156 239l629 412z" />
    <glyph glyph-name="Ohornacute" unicode="&#x1eda;" horiz-adv-x="1695" 
d="M757 438q115 0 197 82t82 198t-82 198t-197 81q-116 0 -198 -82q-82 -81 -82 -197t82 -198t198 -82zM1493 717q0 -305 -216 -521t-520 -216t-520 216t-217 521q0 305 216 521t509 216q292 0 502 -188q76 28 146 74t102 81l31 33l149 -229q-10 -12 -28 -34t-83 -74
t-139 -89q68 -147 68 -311zM596 1593l84 408h299l-84 -408h-299z" />
    <glyph glyph-name="ohornacute" unicode="&#x1edb;" horiz-adv-x="1695" 
d="M757 438q115 0 197 82t82 198t-82 198t-197 81q-116 0 -198 -82q-82 -81 -82 -197t82 -198t198 -82zM1493 717q0 -305 -216 -521t-520 -216t-520 216t-217 521q0 305 216 521t509 216q292 0 502 -188q76 28 146 74t102 81l31 33l149 -229q-10 -12 -28 -34t-83 -74
t-139 -89q68 -147 68 -311zM596 1593l84 408h299l-84 -408h-299z" />
    <glyph glyph-name="Ohorngrave" unicode="&#x1edc;" horiz-adv-x="1695" 
d="M757 438q115 0 197 82t82 198t-82 198t-197 81q-116 0 -198 -82q-82 -81 -82 -197t82 -198t198 -82zM1493 717q0 -305 -216 -521t-520 -216t-520 216t-217 521q0 305 216 521t509 216q292 0 502 -188q76 28 146 74t102 81l31 33l149 -229q-10 -12 -28 -34t-83 -74
t-139 -89q68 -147 68 -311zM469 2136h299l111 -543h-299z" />
    <glyph glyph-name="ohorngrave" unicode="&#x1edd;" horiz-adv-x="1695" 
d="M757 438q115 0 197 82t82 198t-82 198t-197 81q-116 0 -198 -82q-82 -81 -82 -197t82 -198t198 -82zM1493 717q0 -305 -216 -521t-520 -216t-520 216t-217 521q0 305 216 521t509 216q292 0 502 -188q76 28 146 74t102 81l31 33l149 -229q-10 -12 -28 -34t-83 -74
t-139 -89q68 -147 68 -311zM469 2136h299l111 -543h-299z" />
    <glyph glyph-name="Ohorntilde" unicode="&#x1ee0;" horiz-adv-x="1695" 
d="M757 438q115 0 197 82t82 198t-82 198t-197 81q-116 0 -198 -82q-82 -81 -82 -197t82 -198t198 -82zM1493 717q0 -305 -216 -521t-520 -216t-520 216t-217 521q0 305 216 521t509 216q292 0 502 -188q76 28 146 74t102 81l31 33l149 -229q-10 -12 -28 -34t-83 -74
t-139 -89q68 -147 68 -311zM328 1708q152 236 405 104q207 -105 316 -40l77 -93l-8 -24q-22 -51 -102 -99q-92 -54 -300 30q-118 48 -173 54t-115 -28z" />
    <glyph glyph-name="ohorntilde" unicode="&#x1ee1;" horiz-adv-x="1695" 
d="M757 438q115 0 197 82t82 198t-82 198t-197 81q-116 0 -198 -82q-82 -81 -82 -197t82 -198t198 -82zM1493 717q0 -305 -216 -521t-520 -216t-520 216t-217 521q0 305 216 521t509 216q292 0 502 -188q76 28 146 74t102 81l31 33l149 -229q-10 -12 -28 -34t-83 -74
t-139 -89q68 -147 68 -311zM328 1708q152 236 405 104q207 -105 316 -40l77 -93l-8 -24q-22 -51 -102 -99q-92 -54 -300 30q-118 48 -173 54t-115 -28z" />
    <glyph glyph-name="Ohorndotbelow" unicode="&#x1ee2;" horiz-adv-x="1695" 
d="M588 -102h358v-359h-358v359zM757 438q115 0 197 82t82 198t-82 198t-197 81q-116 0 -198 -82q-82 -81 -82 -197t82 -198t198 -82zM1493 717q0 -305 -216 -521t-520 -216t-520 216t-217 521q0 305 216 521t509 216q292 0 502 -188q76 28 146 74t102 81l31 33l149 -229
q-10 -12 -28 -34t-83 -74t-139 -89q68 -147 68 -311z" />
    <glyph glyph-name="ohorndotbelow" unicode="&#x1ee3;" horiz-adv-x="1695" 
d="M588 -102h358v-359h-358v359zM757 438q115 0 197 82t82 198t-82 198t-197 81q-116 0 -198 -82q-82 -81 -82 -197t82 -198t198 -82zM1493 717q0 -305 -216 -521t-520 -216t-520 216t-217 521q0 305 216 521t509 216q292 0 502 -188q76 28 146 74t102 81l31 33l149 -229
q-10 -12 -28 -34t-83 -74t-139 -89q68 -147 68 -311z" />
    <glyph glyph-name="Udotbelow" unicode="&#x1ee4;" horiz-adv-x="1409" 
d="M584 -102h358v-359h-358v359zM1378 1434v-836q0 -256 -181 -437t-436 -181t-437 181t-183 437v723q0 45 -32 79q-33 34 -78 34h538v-801q-1 -80 55 -136q56 -57 136 -57t136 56t54 137v688q0 47 -32 80q-33 33 -80 33h540z" />
    <glyph glyph-name="udotbelow" unicode="&#x1ee5;" horiz-adv-x="1409" 
d="M584 -102h358v-359h-358v359zM1378 1434v-836q0 -256 -181 -437t-436 -181t-437 181t-183 437v723q0 45 -32 79q-33 34 -78 34h538v-801q-1 -80 55 -136q56 -57 136 -57t136 56t54 137v688q0 47 -32 80q-33 33 -80 33h540z" />
    <glyph glyph-name="Uhornacute" unicode="&#x1ee8;" horiz-adv-x="1738" 
d="M1382 600q0 -256 -181 -438t-437 -182t-437 182t-182 438v721q0 47 -32 80q-33 33 -80 33h534v-834q1 -82 59 -140t139 -58t138 58t58 140v834h421v-78q110 68 152 117l18 20l154 -236q-12 -16 -36 -43t-108 -89t-180 -99v-426zM602 1536l84 408h299l-84 -408h-299z" />
    <glyph glyph-name="uhornacute" unicode="&#x1ee9;" horiz-adv-x="1738" 
d="M1382 600q0 -256 -181 -438t-437 -182t-437 182t-182 438v721q0 47 -32 80q-33 33 -80 33h534v-834q1 -82 59 -140t139 -58t138 58t58 140v834h421v-78q110 68 152 117l18 20l154 -236q-12 -16 -36 -43t-108 -89t-180 -99v-426zM602 1536l84 408h299l-84 -408h-299z" />
    <glyph glyph-name="Uhorngrave" unicode="&#x1eea;" horiz-adv-x="1738" 
d="M1382 600q0 -256 -181 -438t-437 -182t-437 182t-182 438v721q0 47 -32 80q-33 33 -80 33h534v-834q1 -82 59 -140t139 -58t138 58t58 140v834h421v-78q110 68 152 117l18 20l154 -236q-12 -16 -36 -43t-108 -89t-180 -99v-426zM475 2079h299l111 -543h-299z" />
    <glyph glyph-name="uhorngrave" unicode="&#x1eeb;" horiz-adv-x="1738" 
d="M1382 600q0 -256 -181 -438t-437 -182t-437 182t-182 438v721q0 47 -32 80q-33 33 -80 33h534v-834q1 -82 59 -140t139 -58t138 58t58 140v834h421v-78q110 68 152 117l18 20l154 -236q-12 -16 -36 -43t-108 -89t-180 -99v-426zM475 2079h299l111 -543h-299z" />
    <glyph glyph-name="Uhorntilde" unicode="&#x1eee;" horiz-adv-x="1738" 
d="M1382 598q0 -254 -181 -436t-437 -182t-437 181t-182 437v723q0 47 -32 80q-33 33 -80 33h534v-836q1 -82 59 -139t139 -57t138 56q57 58 58 140v836h421v-78q103 59 158 117l23 20l143 -238q-12 -16 -36 -43t-108 -88t-180 -98v-428zM352 1708q152 236 406 104
q197 -100 303 -47q8 4 12 7l78 -93l-8 -24q-22 -51 -103 -99q-91 -54 -299 30q-119 48 -174 54t-114 -28z" />
    <glyph glyph-name="uhorntilde" unicode="&#x1eef;" horiz-adv-x="1738" 
d="M1382 598q0 -254 -181 -436t-437 -182t-437 181t-182 437v723q0 47 -32 80q-33 33 -80 33h534v-836q1 -82 59 -139t139 -57t138 56q57 58 58 140v836h421v-78q103 59 158 117l23 20l143 -238q-12 -16 -36 -43t-108 -88t-180 -98v-428zM352 1708q152 236 406 104
q197 -100 303 -47q8 4 12 7l78 -93l-8 -24q-22 -51 -103 -99q-91 -54 -299 30q-119 48 -174 54t-114 -28z" />
    <glyph glyph-name="Uhorndotbelow" unicode="&#x1ef0;" horiz-adv-x="1738" 
d="M571 -102h359v-359h-359v359zM1382 600q0 -256 -181 -438t-437 -182t-437 182t-182 438v721q0 47 -32 80q-33 33 -80 33h534v-834q1 -82 59 -140t139 -58t138 58t58 140v834h421v-78q110 68 152 117l18 20l154 -236q-12 -16 -36 -43t-108 -89t-180 -99v-426z" />
    <glyph glyph-name="uhorndotbelow" unicode="&#x1ef1;" horiz-adv-x="1738" 
d="M571 -102h359v-359h-359v359zM1382 600q0 -256 -181 -438t-437 -182t-437 182t-182 438v721q0 47 -32 80q-33 33 -80 33h534v-834q1 -82 59 -140t139 -58t138 58t58 140v834h421v-78q110 68 152 117l18 20l154 -236q-12 -16 -36 -43t-108 -89t-180 -99v-426z" />
    <glyph glyph-name="Ygrave" unicode="&#x1ef2;" horiz-adv-x="1320" 
d="M20 1434h553l168 -463v-131l101 487q6 45 -21 76t-71 31h550l-292 -1432h-437l107 526h-209l-291 793q-18 49 -63 81t-95 32zM455 2079h299l110 -543h-299z" />
    <glyph glyph-name="ygrave" unicode="&#x1ef3;" horiz-adv-x="1320" 
d="M20 1434h553l168 -463v-131l101 487q6 45 -21 76t-71 31h550l-292 -1432h-437l107 526h-209l-291 793q-18 49 -63 81t-95 32zM455 2079h299l110 -543h-299z" />
    <glyph glyph-name="Ydotbelow" unicode="&#x1ef4;" horiz-adv-x="1320" 
d="M612 -61h359v-359h-359v359zM20 1434h553l168 -463v-131l101 487q6 45 -21 76t-71 31h550l-292 -1432h-437l107 526h-209l-291 793q-18 49 -63 81t-95 32z" />
    <glyph glyph-name="ydotbelow" unicode="&#x1ef5;" horiz-adv-x="1320" 
d="M612 -61h359v-359h-359v359zM20 1434h553l168 -463v-131l101 487q6 45 -21 76t-71 31h550l-292 -1432h-437l107 526h-209l-291 793q-18 49 -63 81t-95 32z" />
    <glyph glyph-name="Ytilde" unicode="&#x1ef8;" horiz-adv-x="1320" 
d="M20 1434h553l168 -463v-131l101 487q6 45 -21 76t-71 31h550l-292 -1432h-437l107 526h-209l-291 793q-18 49 -63 81t-95 32zM311 1708q152 236 406 104q197 -100 303 -47q8 4 12 7l78 -93l-8 -24q-22 -51 -103 -99q-91 -54 -299 30q-119 48 -174 54t-114 -28z" />
    <glyph glyph-name="ytilde" unicode="&#x1ef9;" horiz-adv-x="1320" 
d="M20 1434h553l168 -463v-131l101 487q6 45 -21 76t-71 31h550l-292 -1432h-437l107 526h-209l-291 793q-18 49 -63 81t-95 32zM311 1708q152 236 406 104q197 -100 303 -47q8 4 12 7l78 -93l-8 -24q-22 -51 -103 -99q-91 -54 -299 30q-119 48 -174 54t-114 -28z" />
    <glyph glyph-name="endash" unicode="&#x2013;" horiz-adv-x="1282" 
d="M1262 911v-399h-1127v285q0 47 -34 81t-81 33h1242z" />
    <glyph glyph-name="emdash" unicode="&#x2014;" horiz-adv-x="1589" 
d="M1569 911v-399h-1434v285q0 47 -34 81t-81 33h1549z" />
    <glyph glyph-name="quoteleft" unicode="&#x2018;" horiz-adv-x="516" 
d="M82 1567h414l-111 -543h-299l86 428q10 47 -16 81q-27 34 -74 34z" />
    <glyph glyph-name="quoteright" unicode="&#x2019;" horiz-adv-x="565" 
d="M20 1567h414l111 -543h-299l-88 428q-8 47 -49 81t-89 34z" />
    <glyph glyph-name="quotesinglbase" unicode="&#x201a;" horiz-adv-x="454" 
d="M434 399l-110 -542h-299l86 428q10 47 -17 81t-74 33h414z" />
    <glyph glyph-name="quotedblleft" unicode="&#x201c;" horiz-adv-x="905" 
d="M475 1024l111 543h299l-111 -543h-299zM82 1567h414l-111 -543h-299l86 428q10 47 -16 81q-27 34 -74 34z" />
    <glyph glyph-name="quotedblright" unicode="&#x201d;" horiz-adv-x="954" 
d="M524 1567h299l111 -543h-299zM20 1567h414l111 -543h-299l-88 428q-8 47 -49 81t-89 34z" />
    <glyph glyph-name="quotedblbase" unicode="&#x201e;" horiz-adv-x="843" 
d="M414 -143l110 542h299l-110 -542h-299zM434 399l-110 -542h-299l86 428q10 47 -17 81t-74 33h414z" />
    <glyph glyph-name="dagger" unicode="&#x2020;" horiz-adv-x="1064" 
d="M1044 1061v-359h-460l127 -24v-944h-357v968h-334v359h334v319q0 47 -33 81q-34 34 -81 34h473v-434h331z" />
    <glyph glyph-name="daggerdbl" unicode="&#x2021;" horiz-adv-x="1064" 
d="M711 539h333v-359h-462l129 -24v-422h-359v446h-332v359h334v163h-334v359h334v319q0 47 -33 81q-34 34 -81 34h473v-434h331v-359h-460l127 -24v-139z" />
    <glyph glyph-name="bullet" unicode="&#x2022;" horiz-adv-x="708" 
d="M688 715q0 -137 -98 -235t-236 -99q-138 0 -235 98q-99 97 -99 235t98 236t236 98t236 -98t98 -235z" />
    <glyph glyph-name="ellipsis" unicode="&#x2026;" horiz-adv-x="1517" 
d="M1098 399h399v-399h-399v399zM616 399h400v-399h-400v399zM535 0h-400v285q0 47 -34 81t-81 33h515v-399z" />
    <glyph glyph-name="perthousand" unicode="&#x2030;" horiz-adv-x="2424" 
d="M2157 246q0 46 -33 78t-79 32t-79 -32t-33 -79q0 -46 33 -79t78 -33t79 34t34 79zM1354 246q0 46 -33 78t-79 32t-79 -32t-33 -79q0 -46 33 -79t78 -33t79 34t34 79zM2044 -117q-150 1 -255 107t-106 256t105 255t256 105t255 -105t105 -255t-105 -256t-255 -107z
M1241 -117q-150 1 -255 107t-105 256t105 255t255 105t255 -105q106 -105 106 -255t-106 -256t-255 -107zM382 1303q-46 0 -79 -33t-33 -79t33 -79t78 -33t79 34t34 79t-33 78t-79 33zM381 829q-150 1 -255 107t-106 256q0 150 106 255t255 105q150 0 255 -105t105 -255
t-105 -256t-255 -107zM459 -129h-439l1143 1694h439z" />
    <glyph glyph-name="guilsinglleft" unicode="&#x2039;" horiz-adv-x="698" 
d="M678 430l-215 -190l-443 503l443 502l215 -188l-277 -314z" />
    <glyph glyph-name="guilsinglright" unicode="&#x203a;" horiz-adv-x="698" 
d="M678 743l-442 -503l-216 190l277 313l-277 314l216 188z" />
    <glyph glyph-name="fraction" unicode="&#x2044;" horiz-adv-x="1146" 
d="M459 -129h-439l668 1694h438z" />
    <glyph glyph-name="Euro" unicode="&#x20ac;" horiz-adv-x="1505" 
d="M983 379q90 0 167 43t122 117l203 -410q-213 -180 -491 -180t-489 176q-212 176 -266 440h-157l39 185q12 51 -16 83t-75 31h209q51 268 263 444t496 177q282 0 497 -187l-211 -405q-45 76 -123 120t-173 44t-177 -52t-125 -141h405l-63 -299h-453l129 -24
q47 -76 123 -119t166 -43z" />
    <glyph glyph-name="emptyset" unicode="&#x2205;" horiz-adv-x="1574" 
d="M1077 901l-198 -504q109 29 179 120t68 195q0 104 -49 189zM498 545l200 506q-110 -29 -180 -120t-70 -195t50 -191zM788 -45q-29 0 -81 4l-35 -84h-439l95 236q-143 106 -226 267q-82 161 -82 345q0 317 226 543t542 225q29 0 82 -4l31 82h440l-92 -234
q141 -106 223 -267t82 -345q0 -317 -225 -543t-541 -225z" />
    <glyph glyph-name="minus" unicode="&#x2212;" horiz-adv-x="1343" 
d="M1323 895v-358h-1188v243q0 47 -34 81t-81 34h1303z" />
    <glyph glyph-name="integral" unicode="&#x222b;" horiz-adv-x="751" 
d="M162 131v1169q0 102 32 180t81 121q107 90 234 100q127 11 191 3l31 -6v-207h-15q-9 0 -34 -9q-51 -18 -71 -72q-21 -54 -21 -110v-1169q0 -102 -32 -180t-82 -120q-110 -92 -239 -102q-130 -10 -184 1l-33 4v207h16q9 0 34 9t43 26q17 16 33 58t16 97z" />
    <glyph glyph-name="approxequal" unicode="&#x2248;" horiz-adv-x="962" 
d="M20 563q76 119 209 146t258 -41q166 -84 308 -59q39 7 51 11t18 7l78 -92l-16 -23q-32 -57 -134 -104q-116 -56 -324 28q-122 50 -202 60t-145 -29zM20 850q76 120 209 146t258 -42q198 -101 359 -47l18 6l78 -92l-16 -22q-33 -59 -134 -105q-115 -55 -324 29
q-122 49 -202 59t-145 -28z" />
    <glyph glyph-name="notequal" unicode="&#x2260;" horiz-adv-x="1548" 
d="M1528 639v-358h-586l-84 -410h-436l84 410h-371v243q0 47 -34 81t-81 34h558l34 164h-477v244q0 47 -34 81t-81 33h664l59 289q8 47 -17 81q-26 34 -73 34h551l-82 -404h406v-358h-479l-33 -164h512z" />
    <glyph glyph-name="lessequal" unicode="&#x2264;" horiz-adv-x="1273" 
d="M1253 358v-358h-1233v358h1233zM1253 1581l-596 -379l596 -379v-403l-1233 782l1233 783v-404z" />
    <glyph glyph-name="greaterequal" unicode="&#x2265;" horiz-adv-x="1273" 
d="M1253 0h-1233v358h1233v-358zM1253 1202l-1233 -782v403l596 379l-596 379v404z" />
    <glyph glyph-name="lozenge" unicode="&#x25ca;" horiz-adv-x="1603" 
d="M1077 723l-276 276l-275 -276l275 -274zM1583 723l-782 -782l-781 782l781 782z" />
    <glyph glyph-name="uni2C72" unicode="&#x2c72;" horiz-adv-x="2078" 
d="M20 1434h551l115 -576l-8 -131l153 592q12 47 -13 81q-26 34 -70 34h428l147 -578v-129l98 496q21 100 67 171q46 72 103 102t135 47t224 -10q49 -9 78 -22l30 -10l-41 -203q-42 14 -95 -16q-22 -12 -44 -47t-35 -86l-227 -1149h-369l-229 821l-230 -821h-368l-264 1329
q-12 45 -52 75t-84 30z" />
    <glyph glyph-name="uni2C73" unicode="&#x2c73;" horiz-adv-x="2078" 
d="M20 1434h551l115 -576l-8 -131l153 592q12 47 -13 81q-26 34 -70 34h428l147 -578v-129l98 496q21 100 67 171q46 72 103 102t135 47t224 -10q49 -9 78 -22l30 -10l-41 -203q-42 14 -95 -16q-22 -12 -44 -47t-35 -86l-227 -1149h-369l-229 821l-230 -821h-368l-264 1329
q-12 45 -52 75t-84 30z" />
    </font>
</defs>
</svg>
